<svg xmlns="http://www.w3.org/2000/svg" viewBox="0 0 4000 3500" width="4000" height="3500"><g transform="translate(593.0 1365.0) rotate(0.0 771.0 785.5) scale(1.059082664080545 1.059864464181506)"><svg width="1455.977" height="1482.265" viewBox="0 0 1455.977 1482.265"><path d="M1234.247 1482.265H216.755C97.236 1482.265 0 1381.898 0 1258.53V536.653C0 393.37 53.992 258.647 152.029 157.302 250.153 55.864 380.641 0 519.453 0h421.525c137.625 0 266.994 55.385 364.276 155.952 97.196 100.477 150.724 234.044 150.724 376.098v728.484c0 59.226-23.064 114.908-64.943 156.787s-97.561 64.943-156.787 64.943zM519.453 20c-133.344 0-258.726 53.7-353.049 151.207C71.994 268.803 20 398.587 20 536.653v721.876c0 112.34 88.264 203.735 196.755 203.735h1017.492c111.234 0 201.73-90.496 201.73-201.73V532.05c0-136.836-51.53-265.465-145.099-362.192-93.48-96.637-217.744-149.857-349.901-149.857H519.452z" fill="#f36a8d"/></svg></g><g transform="translate(663.0 663.0) rotate(0.0 1151.0 906.0) scale(1.0619300832983123 1.062256309784893)"><svg width="2167.751" height="1705.803" viewBox="0 0 2167.751 1705.803"><g data-name="Young man holds a pen and looks up"><g><g><path d="m1093.441 435.263-29.904 196.764 169.22 22.679 10.639-82.738-1.312-42.356 9.824-23.843 3.002-23.347-161.47-47.158Z" style="fill:#ffc197"/><path d="m1253.167 495.981-152.309-31.751s43.385 74.194 142.538 107.738l9.771-75.987Z"/><path d="M1203.989 94.155c58.302-4.005 158.006 36.907 195.761 160.015 44.501 124.243-13.138 215.699-77.79 242.847-64.652 27.148-190.447 15.282-230.528-32.927-40.081-48.209-51.757-31.783-51.757-31.783s-69.298-88.712-48.524-165.153c21.913-70.996 78.503-163.77 212.838-173Z" style="fill:#ffc197"/><path d="m1377.255 238.464 50.563-27.311-25.689 75.822-24.874-48.511Z" style="fill:#ffc197"/><g><path d="M1376.857 249.932s-102.893-74.195-150.747 44.831c0 0 116.176 86.688 150.747-44.831Z" style="fill:#fff"/><path d="M1284.225 272.328c3.331 25.322 25.485 43.543 50.534 42.47 17.396-9.67 32.739-29.261 42.098-64.864 0 0-35.271-25.417-74.115-22.615-13.26 10.302-20.865 27.159-18.517 45.009Z"/></g></g><g><path d="M1168.102 177.939c.01-.05.03-.09.05-.12.01 0 .01-.01.01-.01l.23-.49c2.32-5.07 4.38-10.1 6.15-15.06 7.83 32.71-.75 60.15-11.36 85.02 37.09-18.64 52.94-47.92 62.03-81.36.67-2.43 1.29-4.89 1.89-7.36 1.37 3.62 2.44 7.18 3.22 10.78 2.28 10.5 2.02 21.27-.87 34.55 7.81-7.76 13.57-15.59 17.74-23.26 12.83-23.58 10.75-45.72 7.66-60.09 11.1 5.93 35.94 3.38 49.01 2.22-29.68-29.98-114.44-61.8-193.45-37.8-10.23 3.1-20.27 7.07-30.03 11.82 3.47-29.96-.39-55.51-7.58-79.48-7.18-23.94-16.45-7.52-20.53 5.88-7.26 23.81-15.32 64.36-10.05 97.27 0 0 0 .01-.01.01v.01c-.37.28-.76.57-1.13.86-2.14-5.04-4.57-9.97-7.43-14.66-2.85-4.7-6.14-9.16-10-13.26-23.5-24.9-24.42-4.96-23.37 5.63 1.29 12.9 9.8 32.59 17.64 42.87-37.78 38.32-62.89 90.1-62.89 145.5 0 18.64 2.84 37.69 9 56.78.02.06.05.13.06.18 1.18 4.31 2.5 8.62 3.98 12.9 1.74 5.12 3.71 10.21 5.9 15.26.26.6.52 1.2.79 1.79.04.11.09.22.14.33.06.14.13.29.19.43 21.96 49.14 54.08 71.76 78.58 82.18 1.33.56 2.63 1.09 3.91 1.58 2.23.86 4.38 1.62 6.44 2.29.08.03.16.05.24.08.07.02.14.04.2.06 1.11.36 2.18.68 3.23.99 1.73.5 3.38.94 4.94 1.31 1.15.29 2.25.54 3.3.76.55.12 1.09.23 1.61.33 6.99 1.37 11.22 1.46 11.22 1.46.8-7.5 1.84-13.97 4.64-20.5 2.28-5.31 5.65-10.24 9.41-14.58q.01-.01.01-.02c.09-.09.15-.16.22-.25q.01 0 .02-.01l.19-.22s0-.01.01-.01c.04-.04.06-.07.09-.1 7.28-8.22 15.86-14.27 20.7-16.76-3.32-3.05-6.32-6.1-9.04-9.16-.02-.03-.05-.05-.07-.08-.16-.18-.32-.36-.48-.55-9.46-10.78-15.36-21.6-18.72-32.09 15.79-3.4 17.33-5.6 17.33-5.6 1.06-14.25-3.57-32.52-9.77-48.48-.22-.56-.44-1.12-.66-1.67-.7-1.74-1.41-3.45-2.13-5.12-.13-.28-.25-.56-.37-.84-.29-.65-.58-1.3-.87-1.94-.12-.27-.24-.53-.36-.8-.11-.25-.23-.5-.35-.75-5.37-11.57-11.12-20.68-15.14-24.08 13.05-8.02 28.83-22.9 43.89-41.06 5.2-6.27 10.31-12.94 15.2-19.85 9.74-13.79 18.57-28.55 25.34-43.11l.25-.55Z" style="fill:#f36a8d"/><g><path d="M1149.477 198.509c-.292.553-.074.732-.641 1.006.766.586.958-.758.641-1.006Zm-1.949 4.834c.889-1.752 1.204-1.438 1.14-3.122-.649 1.051-1.641 2.118-1.14 3.122Zm-4.415-2.889c-.49-.085-1.539.342-1.229 1.03.101-.888 1.494-.456 1.229-1.03Zm-1.615 1.186c-.149.374-.385.53-.659.587.315.173.709.537.895.382-.387-.309.153-.658-.236-.969Zm3.462 5.727c.591-.905.684-2.067 1.869-2.035-1.71-.748-2.125 1.128-1.869 2.035Zm.943 3.874c-.114.084-.276.057-.494-.119-.175.24-.241.475-.166.707.403.349 1.385.293.97-.183-.262.193-.173-.2-.31-.406Zm-21.986 2.323c-.635-.502-1.565.164-.95.603.215-.457.734-.147.95-.603Zm-8.336 8.601c-.117.824-.921-.068-1.153.468.632.688 1.485.031 1.153-.468Zm-33.079 33.965c.075-.512-.095-1.02-.453-1.517-.26.335-.279.663-.056.981.379-.342.17.425.509.536Zm-5.813-1.151c-.281-.175-.398-.357-.512-.538-.733.382-1.562 1.291-.881 2.274.549-1.14.277-1.439 1.393-1.736Zm5.673 7.171c.331-.666 1.189-1.356.698-1.988-.447.951-.978 1.28-.698 1.988Zm-7.983-3.999c.214.203.957.038.475-.3-1.009-.343 1.094-.412-.144-1.113-.133.537-.617.196-.749.732.135.136.392.263.308.405-.774.605-.996 2.379.11.276Zm-1.594 1.605c-.322.433-.562.862-.243 1.268.227-.428.804-.871.243-1.268Zm-1.025 1.163c-.476.392-.218.754.142 1.112.302-.385.527-.767-.142-1.112Zm-.648 3.242c-1.836-.721 1.385-1.343.405-1.974-.752.749-.927.64-1.702 1.331.16.439.897.674 1.297.643Zm-2.407 5.554c-.282.295-.827-.085-1.173.049.477.306.437.635 1.115.93.257-.335.483-.672.059-.979Zm2.288 5.775c.384-.389-.244-.736-.435-1.101-.445.393.003.747.435 1.101Zm-1.575 2.023c.127-.424.562-.862-.052-1.257-.127.426-.561.863.052 1.257Zm-5.601 3.873c.199-.758 1.489-.716 1.206-1.451-.39.281-1.492.71-1.206 1.451Zm31.477 38.096c.258-.219.737.115.861-.455-.252-.134-.555-.398-.694-.251.601.308-.848.207-.167.707Zm-4.448 1.165c.201.133.402.264.603.395.556-.012.141-.598.056-.982-.273.057-.509.213-.659.587Zm2.056 4.807c.345-.533.933-1.802.607-1.844-.408.623-.902 1.249-.607 1.844Zm-42.489-27.987c-.495-.343-1.439.078-1.153.468.318-.321.875-.043 1.153-.468Zm38.542 27.035c-.252.569.13 1.114.362 1.663.503-.581.004-1.12-.362-1.663Zm-.227 3.924c.066-.081.138-.151.292-.013.128.071.251.135.293-.012-.39-.309.152-.658-.237-.969-.488.008-.655.62-.347.994Zm-42.076-25.07-.602-.393c-.449.437-.211.847-.24 1.268-.921 2.114.37-.677.842-.875Zm-8.201-4.548c-.096.424-.917.879-.532 1.281.438-.24.966-.732.532-1.281Zm47.576 35.183c.206.755-1.042 1.438-.899 1.855.361-.151 1.657-1.307.899-1.855Zm-49.979-31.867c-.754-.03-.589.403-.349.995.76.24.238-.497.349-.995Zm-.933 1.019-.603-.394c-.128.302-.43.169-.569.442.587.48.798.01 1.172-.048Zm6.909 8.796c-.578-.223.291-1.202-.527-.957.51.509-.493.192-.458.72.43.338.776.458.985.237Zm-8.234-5.385c-.134.534-.616.195-.753.729l.604.395c-.268-.673.966-.542.149-1.124Zm2.098 3.408c-1.126-.29.344-1.399-.346-1.245-.691.462-.501 1.688.346 1.245Zm-4.516-.511c.102-.235.409-.481.166-.704-.052.079-.269.055-.201-.131.026-.142.175-.288-.018-.419-.289.431-.721.869.053 1.255Zm2.078 2.99c-.054.468-.688.959-.04 1.4.245-.382.447-.872.841-.877l-.801-.523Zm-6.711.702c-.518.675-.646 1.332-.115 1.96.108-.656.083-1.308.115-1.96Zm-8.648 15.322c-.935-.015-.025-.701.476-.3l-.805-.525c-.352.482-.534.955-.332 1.412.02-.508 1.187.063.66-.586Zm-5.283 6.933c-.592.248-.266.703-.24 1.268.323-.431.562-.862.24-1.268Zm2.819 6.73c-.046-.875.762-.266.552-.861-.154.143-.278-.057-.401-.261-.243.382-.653.771-.151 1.122Zm-2.333-2.137c-.385.056-1.184.98-.919 1.436.385-.057 1.186-.979.919-1.436Zm1.232 3.862c.426-.659.946-1.007 1.01-1.58-.115.082-.272.058-.493-.118.169.551-.788 1.152-.517 1.699Zm-11.942 1.761c-.252-.763.959-.722.623-1.426-.285.475-1.748.672-.623 1.426Zm3.252.702c-.763-.247.144-.566-.619-.813-.187.518-.848.278-.257.851.195-.259.727.333.876-.038Zm-4.108-2.482c-.842-.544-1.25-.032-.951.6.396-.002.556-.6.951-.6Zm1.837 4.255c-.115.579-.785-.236-.969.181 1.223.278-.198 1.931-.349.995-.147.377-.19.752.143 1.111.725.048 1.43-1.533 1.174-2.287Zm-2.556 6.678c.165-.588.933.351 1.063-.322-.2-.133-.402-.264-.603-.396-.17.011-.907.373-.459.718Zm-3.2.554c.141.555-.847 1.156-.223 1.687-.19-.806 1.218-.862.223-1.687Zm-4.091-2.063-.604-.395-.549.862c.706.649.629-.662 1.154-.468Zm102.7 80.392c.135-.161.279-.299.586-.024.236-.749.709-1.292.223-1.687.072.816-.935 1.138-.808 1.711ZM983.21 359.013c-.383.241-.963.851-.333 1.411-.121-.46.6-.959.333-1.411Zm104.567 87.723c-.236.384-.762.778.145 1.114.147-.379.19-.755-.145-1.114Zm-6.814 14.687c-.475 1.193-.831 1.712-1.159 2.705.787-.479 1.629-1.303 1.467-2.3-.26.193-.174-.2-.308-.405Zm-2.795-1.419c-.33.732-.589 1.05.47 1.938-.296-.641-.121-1.302-.47-1.938Zm.413 2.917c-.141.148-.225.43-.475.299-.308-.616 1.044-.148.643-1.003-.485-.351-.881-.473-1.189-.373-.005.561.041 1.118-.222 1.688.79.34.503.305 1.296.645-.208.194.025.565.31.406-.438-.54.105-1.124-.362-1.662Zm-103.319-90.572c.05.07.1.14.13.21.03-.07.02-.15-.13-.21Zm89 88.86c.07.02.14.04.2.06.01-.09.01-.18-.03-.27-.07.09-.12.16-.17.21Zm-88.89-88.59.03-.03c0-.01-.01-.02-.01-.03 0 .02-.01.04-.02.06Z" style="fill:#ef4a6b;fill-rule:evenodd"/><path d="M1144.402 210.469c-.63.1-.21.79-.75.73-.76-.9-1.56-1.8-.8-2.76.27.22.19.45.42.68.37-.82.38-2.01.1-2.38.92-.33.26-.58.44-1.14.29-.9 1.77-1.59.87-2.69-.8.23-.49 1.45-1.73.91-.19-.91 1.16-.59.45-1.14-.83.04-.89 2-2 1.34.18-.28.37-.57.55-.86-.6-.41-1.04.38-1.39-.5-.02.28-.71.59-.26.85.17-.34.46-.35.88-.04-.21.38-.84 1.07-1.3 1.6-.56-1.82 1.01-4.17 1.93-5.26-.3-.36-.69-.72-.73-1.09-.44.66-.88 1.31.04.84-.26.6-.85.38-1.36.34-.29-1.67.76-.65 1.1-1.73-.47.42-.95.4-1.18-.37-1.19 1.02-2.6 2.51-2.88 3.62-1.82-.48-1.47 3.19-3.83 1.98-.44.53 1.02.98.46 1.52-.6.25-1.27.3-1.84.63.4.84-.46 1.49-1.31 1.18.11-.19-.27-.36-.22-.55 1-.12 1.74-1.7 1.65-2.59-.69 1.03-2.01 2.05-2.11 3.31.14-.15.23-.43.48-.3-.32.38.17.73-.15 1.12-.5-.19-.38-.82-.7-.25.08.32.37.64.24.97-1.2.54-2.45 1.77-2.51 3.04-2.51.21-2.13 4.39-4.96 2.87-.29 1.46-.97 2.69-2.61 3.18-.15.29.6.54.33.83-1.95.35-1.32 3.27-2.75 4.31-.75-.62 1.11-1.32-.16-1.54-.53 2.57-3.22 3.17-4.2 4.8-.43-.36.21-.76-.44-1.11-.23.48-1.22 1.21-1.28 2.02-.3-.14-.52-.05-.9-.38-.21 1.37-1.67 1.71-2.82 2.63.33.5.99.12.81.53-.19.28-.37.57-.56.86-.15-.36-.63-.68-.89-.38-.45 1.45-1.95 2.61-1.88 4.27-.47-.92-.42.25-.47.3-.04 0-.36-.26-.4-.26-2.35 1.55-3.25 7.25-5.07 7.48.62.06.88 1.48-.13 1.54-.61-.25-.22-.55-.62-.81-1.86 3.71-4.77 7.22-7.25 11.35.12-.08.19-.28.39-.16-1.48 1.73-2.56 2.16-3.16 4.05-1.25 1.21-2.73 4.05-3.32 4.75.21-.05.95-.54.88-.03-2.28.68-3.1 2.03-4.41 4.24-1.06-.47-2.08 1.07-1.1 1.72.41-.39.4-.76.14-1.12.4 0 .5-.76 1.18-.05-.49.72-1.73 3.15-1.8 1.47-.7 2.7-2.61 2.41-3.32 4.75-2.17-.91-2.29 2.83-3.24 1.96.16.85-.46 1.6-1.59 1.6.27-1.58 1.2-2.19 1.23-3.26-.24.51-.54.9-1.05.74.25 1.07-.25 1.64-1.19 1.87.91.56-.25.66-.46.71.54.61.45-.36.99.24-.26 1.16-1.3 2.1-2.53 2.63.14-.29.17-.57-.04-.84-.21.99-1.87 1.19-.79 2.13.31-.22.36-1.11.85-.88-.32 1.27-1.05 1.86-1.96 2.18.14-.17.69-1.02.16-.7-.62.54-.29 1.03-.42 1.55-2.39.49-2.54 1.88-3.98 3.11.6.67-.15 1.4-.49 2.11-.28-.18-.49-.22-.7-.25-.55-.3.2-.66-.53-.95-.43.54-.93 2.06-2.34 2.33.18.63-.47 2.67-1.87 2.04.46-1.12.8-2.15 1.56-2.44-.58-.6 2.27-2.71.94-3.26.37.07.77.2.97-.18-.19-.41-.19-1.05-.57-1.79 1.39 1.01-.12-1.3 1.25-.61.47-.35-.33-.64-.24-.97.44-.26 1.05-.11 1.45-.48.55-4.28 4.72-6.79 6.31-10.34-.66.6-1.17 1.56-2.09 1.49.11-.29 1.03-.35.55-.86-.34.13-.52.67-.95.6.15-1 1.55-.82 1.41-1.32-.63.76-.73-.53-.8-.53-.52.06-.26.86-1.34.76.36.28.55.13.9.38-.25.26-.73-.07-.97.18.76 3.34-3.12 5.21-3.57 8.26-1.11-.55-.89.31-.36.58-.73.44-1.21.27-1.85.21.97 1.48-1.63 2.26-1.22 3.69-1.77.08-1.67 3.01-2.47 3.88.11-.08.27-.06.49.12-.24.56-.21 1.02-.94 1.02-.27-.66.47-.08.66-.59-2.09.09-2.03 2.48-3.46 3.64.15.41.07.84.05 1.26-.73-.11-1.06.81-1.5 1.46.51.49.75.99.16 1.53 1.86.17 2.36-1.42 2.73-2.49.44 1 1.09.29 1.22 1.2-1.27-.29-1.94 2.07-2.56 2.77.2-.19.42-.35.82-.04-.27.44-.24 1.59-1.01 1.58.61-.62-.35-1.02.64-1-.79-.14-1.54-.14-2.14.23.56.51.56-.34 1.19.37-.09.14.06.28.02.42-.68-.17-1.22 1.42-1.74.49-.34 1.26-1.5 2.7-2.93 2.36-.65 2.05-.95 3.8-2.52 5.28-.31-.17-.7-.54-.89-.38.37.4.18.83.34 1.24-.72-.42-.23.4-.67.17.08-.24-.34-.46-.42-.68-.15.37-.39.53-.66.58.55.52.56-.33 1.19.37-.26.34.03.65-.06.98-1.1.07-.35 1.8-1.76 2.31-.24-.22-.25-.45-.71-.67-.27.58.57 1.1.36 1.67-.27-.23-.19-.46-.42-.68 1 1.67-1.71 2.31-2.04 2.74.15-.13.55-.13.5.12-1.87 2.06-2.71 4.34-4.13 6.46-.24-.13-.18-.41-.4-.26-.45 1.09-1.39 7.54-3.21 5.03-.12.08-.19.28-.39.15.08-.19.3-.38.08-.56-.6.24-.52 1.46-.79 2.13-.36-.03-.76-.16-1.08-.09.72 1.99-1.93 1.27-2.04 2.74-.55-.3.2-.66-.53-.96.7 2.56-2.3 4.12-3.05 6.56-.56-.3.71-.68-.23-.97-.4 1.86-2.89 4.21-3.54 6.44-.34-.83-.62.35-1.17.05-.54-2.14 1.54-2.69 1.54-5.09-.34-.12-.93-.85-1.09-.52 1.56 1.69-.7 2.74-.8 4.37-.36-.15-.46.34-.99-.24.45 1.88-1.25 3.89-3.01 5.16.61 1-1.03 1.32-.97 2.42-.1-.51-1.01-.99-.75-1.51.64.18.58 1.01.9.38-1.36-1.15.83-2.36.55-3.09-.28.33-.22-.43-.8-.53.16.98-.79 1.14-.5 2.12-.78-.08-2.06.65-.74.84-1.28-.11-1.16 1.5-2.39 1.39 1.16-1.46.61-2.63 1.31-3.83-1.13.22-.99.86-1.5 1.46-.29-.18-.4-.36-.52-.54-1.44 2.01-2.12 3.53-4.41 4.24.22.18.58.35.51.54-1.42.37-2.16 2.32-2.7 3.33.14-.16.28-.3.59-.03-.4.64-.7 1.5-1.52 1.04-.14.38.79.72.43 1.1-.73.16-1.65-.17-2.34.1 1.08.06-.05 2.73-1.02 1.17-.71.81-.42 1.68-1.89 1.61.2.51.49 1.01.45 1.52 1.99 1.17 2.02 1.62 3.53 2.51.06-1.05.18-1.76 1.61-1.19-.43-.51.33-1.64 1.01-1.58-.64-1.81 1.93-2.03 2.68-3.75.91.72.54-.32 1.46-.06-.25.57-.36 1.14-.52 1.7-.49-.61-.79-.48-1.38-.5.46.59-.16 1.22-.74 1.15.73.72.75-.37 1.26-.19-.06.75-.36 1.5-.29 2.25-1.3-.46-1.91.65-1.89 1.61-.65-.02-.72-.06-1-.65.02 1.9-1.3 3.35-2.68 3.75 1.22 1.34-1.45 1.23-1.29 2.01.25-.14.54-.15.88-.04-.43.35.08.65-.35.99-.76-.54-1.07.06-1.55.21.28.38.94.01.8.52-.99 1.07-1.45 1.43-1.45 2.72-.74-.31-1.23-.8-1.76.07.36.22.61.45.71.67.01 0 .02-.01.03-.01-.45.37-1.03.57-.67 1.43-1.02-.43-.57-1.17-.34-1.65-.68.88-3.21.01-2 1.34-1.39 1.1-2.83 1.52-4.48 2.56-.27-.22-.19-.45-.42-.68-.9.49.25 1.89-1.03 1.16.42-.71 1.13-1.44.79-2.13-.2.25-.44.4-.77.32.88-.33-.69-.65.43-1.56-.84-.38-.35-.82-.93-1.22-.54.13-.89.78-1.54.62.13-1.5.71-2.09 1.96-2.17-.02.28-.71.58-.26.85.4-.87.39.97.79.1-.55-.97-.25-1.49-.29-2.22.63.82-.12-1.01 1.16-.47-.04-.37-.49-.73-.44-1.1 1.99-.28 3.22-2.56 4.25-3.54-.37.06-.59.53-1.17.05.09-.14-.06-.27-.02-.41 1.18.14.79-1.48 2.01-.93.46-.75.25-.84.94-1.02-.36-.41-.99-.53-.35-1.24.39.31.15.65.53.96.81-1.08 1.37-3.62 2.88-3.62-1.89-3.89 4.31-4 3.03-6.98.27.17.35-.13.59-.02-.36.29-.25.57.32.82.41-.77.48-.69 1.51-1.46-1.25-.51-1.81.71-2.91.54-.18-.55.54-1.14.81-1.71-.71-.2-1.55 1.08-1.8 1.48-.01.01.6.5.42.68-.17.17-.8 0-.97.18-.8.83-.69 2.89-2.24 2.61.44-.44.31-.85-.05-1.26-1.08 2.7-2.62 3.78-4.22 6.61-.2-.13-.16-.27-.31-.41-.14 1.24-1.56 1.77-1.32 3.42-.27-.23-.19-.46-.42-.69-.22.71-.21 1.41-.21 2.11-.28-.62-.97.04-1.57-.21.46.26.57.53.33.82-.49.13-.37-.5-.7-.25-.23.9-.66 1.8-.57 2.68-.37-.23-.21-1.18-.82-.94.46 1.58-2.53 3.04-3.26 3.77.51-.27.35.87-.17.7.38.52.99-.15.9.39-.91-.33-.95 1-1.43.9-.86-.25.19-.57-.33-.83-.83.28-1.59.74-2.29 1.35-.01-1.92 3.26-3.53 2.96-6.41-.55-.19-.23.74-.35.99-1.38-.77-.43.43-1.15.47-1.39-1.42 1.09-1.47.97-2.42-.13.16-.27.31-.58.03.09-.15-.06-.28-.02-.42.71-.81 2.46-1.92 1.45-2.72.55-.64 2.26-.29 2.2-1.21-.84.51-1.72.91-2.91.54-.27-.19.54-1.11-.03-.83-.02 1.47-.38 1.79-.96 2.83.39.11.4-.73.97-.18-.34.4-.49 1.26-1.14.89-.05-.63-1.19-.47-.78-.11.43-.27.66.61.62.81-.32-.16-.41.23-.57.45-.35-.24-.65-.38-.9-.38-.3.43-.19.84-.24 1.26-2.27 1.11-1.78 5.07-3.51 6.41.32.72-.28 1.73-.05 1.85.2.18.21.37.22.55-.25 0-.4.04-.48.09 21.96 49.14 54.08 71.76 78.58 82.18 1.33-1.91 2.4-4.06 4.11-5.9-.3-1.74.78-2.97 1.8-3.71-.15.1-.27-.61.16-.71 1.56-.35 1.04 1.5.48 2.38.43-.48 1.27 1.01 1.64 1.45-.52 1.94-1.4 3.21-1.75 4.96-.32.32-.88.04-1.15.47.4 1.12-1.2 1.02-1.49 1.88-.07.21.01.48.11.76 2.23.86 4.38 1.62 6.44 2.29.11-.59.99-2.2 1.91-1.59-.37.44.1.83.05 1.26.43-.85.48-.29 1.38.08.18-.78.79-.49 1.13-.89-.68-.35-.98.27-1.55.21.13-.2.1-.38.07-.57.46-.17 1.61.27.95-.6.35.25.65.38.9.39-.47 1.21-.76 2.09-1.17 2.84 1.73.5 3.38.94 4.94 1.31.14-.3.16-.64-.03-1.1.28.18.4.36.51.54.01-.83.94-1.29 1.59-1.6.55.91-.61 1.2.59 2.21.52-1.07-.87-2.6.24-3.51-.33-.49-.99-.12-.8-.52.53-.27.51-.46.35-1 .68.46 1.02.07 1.46-.06-.02-1.63 2.05-1.84 1.51-3.69 2.01-1.93 3.97-5.39 4.36-7.74.58.2.74-.66 1.47-.06-.21-1.3 1.32-.95.79-2.13-.13.16-.28.3-.58.03.04-.46.11-.47.44-1.14.32.19.68.47.78.1-1-1.31 1.02-1.62 1.67-2.16-.37-.3-.52-.07-.78-.11.25-.62.78-1.75 1.9-1.2-.02.51-1.18-.06-.66.59.18-.17.55.12.78.11-.15-2.32 1.61-4.24 2.43-5.14.3-.33-.27-.96-.14-1.11.33-.42 1.45-.19 1.61-1.19-.03.19.14-.19.37-.57.08-.15.62-1.93 1.68-1.75.54.27-.43 1.31.14 1.11.26-.56.14-.89.74-1.15-1.11-.57-.36-1.3.24-1.27.01.66-.37 1.32.18 1.95.25-1.1.44-3.34 2.16-2.05-.2-.13-.09-.41.18-.28.13.91.71.96.86 1.78-.55-2.99 3.25-2.63 1.8-5.95.41.22.34.45.72.67.3-.43-.37-.82.24-1.27.36.28.54.13.89.38.16-.42.4-.85.24-1.26-.32.69-.91.69-1.64.34.91-.75.3-1.82 1.86-2.03-.56.44.33.82-.24 1.27.57.17 1.31.78 1.58.21-.29-.22-.78-.43-.72-.67.85.69 2.33-1 2.86-1.8-.65-.64-.8-.01-1.39-.5.34-.02.55-.35.75-.73.3.62.3.49 1.12.93.47-.34-.54-.63-.24-.96.75.51.9-.49 1.56-.21-.28-1.07.4-.89.86-.46-.21-.91.12-.99-.27-1.8.55.02.24.18.8.52.18-.75.24-.63.84-.87-.08-.37-.35-.73-.44-1.1.58.01.51-.5.7.25 1.41-1.32-.53-3.34.43-3.79-1.42-1.07-.42-1.35.42-1.56-.33-.5-.99-.12-.8-.53.7-.1.85-.47 1.03-1.16.72.3.47.64.82.95-.13-.54.54-.75.35-.99-.25.13-.54.14-.88.03.22-.33-.08-.65.35-.99l.6.39c-.32-1.93 1.77-2.97 1.2-4.1.12-.56.67 0 .94-.16.01 0 .02-.01.03-.02-.04-.02-.07-.05-.1-.06-.23-.14-.42-.16-.6-.19-.04-.12.01-.24.12-.36-9.46-10.78-15.36-21.6-18.72-32.09 15.79-3.4 17.33-5.6 17.33-5.6 1.06-14.25-3.57-32.52-9.77-48.48-.76.65-1.46 1.26-1.85 1.93.25-1.41.61-2.62 1.19-3.6-.7-1.74-1.41-3.45-2.13-5.12.18.82-.83.97-1.11 1.68-.78-.23-.4-.5-.77.31-.21-.52-.49-.34-1-.66.11-.47.59 0 .88-.03-.18-.42-.24-.83-.64-1.23.32-.2.82.07 1.17-.05.13-.34-.37-.64-.24-.97-.84-.15-.92 1.29-2.09 1.07.22 1.47 1.85 2.5 1.22 3.86.54.23.79-.25 1.16-.47.3 1.71-1.57 1.99-1.04 3.4-.32.06-.53.41-.96.18-.13.49.12 1.91-.72 1.57-.15.28.6.53.33.82-1.92.1-1.32 3.25-2.88 3.62.45 1.3-.84 2.89-1.53 3.28 1.05 1.77-1.28 4-2.84 4.45-.62 1.17-.03 1.39-.68 2.41.25-.27 1.31-.41 1.04-.75.73.51.17 1.12-.5 2.11 0-.04-.09-.22-.05-.35-1.23 1.31-.91 5.58-4.42 5.58.41-.57.65-1.14.52-1.7.11.55-1.88 1.55-.78 2.55-.19.52-.62.42-1.06.33-.44-.36-.88-.71-.44-1.1-.44-.38-.3.72-.87.03.56-.95 1.42-1.16 1.96-2.18-.62.05-1.18.55-1.8 1.48.27-2.79.97-4.25 2.87-6.27-.93-.59-1.22.43-2.05.08 1.4-1.24.83-3.08 1.89-3.85.14.08.27.17.4.26.48.21.26.46.13.69.76.14.37-.84-.44-1.1.3-.47.12-.93.63-1.42.42.31.2.64-.06.98 1.13.13.73-1.57.78-2.55.01-.71.73.36.87-.04-.04-.82 1.82-3.98 2.96-4.17-.02-.55-.13-.73-.82-.95.21-.59.59-.76 1.15-.47-.65-1.21.73-1.55 1.57-2.02.31-.52-.85-.13-.5-.54.22-.37.26-.08.49.12.36-.53-.59-1 .13-1.54.42.45.95.89 1.72 1.32.17-.33-.82-.61-1.12-.93.2-.74.92-.18 1.25-.61-.47-.17-.88-.65-1.02-1.07-.17-.49.03-.9.95-.61-.16.61-.62.47-.95.61.5.31.79.13 1 .65-.11-1.05.4-.79 1.12-1.3-.43-.37-.81-1.11-1.81-1.19.59-.25 1.11-.7 1.72-.91.51.36.09.75-.15 1.13-.11.28.89.27 1.19.37.1-.4-.42-.03-.51-.54.28-.3.66-.33.84-.87.55.02.25.17.81.52-.02-1.3-1.67-1.78-.89-2.62-.29-.1-.53-.08-.68.17-.6-2.4 2.4-3.26 2.72-4.9-5.37-11.57-11.12-20.68-15.14-24.08 13.05-8.02 28.83-22.9 43.89-41.06 5.2-6.27 10.31-12.94 15.2-19.85-.09-1.21-.43-2.87 1.26-3-.5-1.2.57-1.97 1.03-3.4-1.26-.47-.07-1.6.48-2.53-.46-1.31-1.35-.93-.88-2.2Zm-86.43 76.05c.35.69-.68 1.01-.92 1.44-.31-.57.61-1.2.92-1.44Zm-4.57 7.61c-.38.46-.73-.85-.9-.39.1-.43.72-.87 1.12-1.3.84.52-.68 1.15-.22 1.69Zm-49.71 64.02c-.31-.27-.45-.14-.59.02-.31-.61.94-.14.64-1 .22.18.38.2.5.12.21.59-.6-.01-.55.86Zm.07-5.45c-.14-.36.08-.7.45-.72.69.4.4 1.38-.45.72Zm-15.69 12.96c.18.4.1 1.12-.44 1.14-.41-.36.37-.77.44-1.14Zm-8.12 2.02c.38.39.24 1.11-.15 1.12-.26-.36-.15-.74.15-1.12Zm-1.68-.49c.85.39.34 1.19-.37.57.13-.19.25-.38.37-.57Zm-.19 4.76c-.1-.41-.41-.82-.93-1.22.5-.7 1.59-.74 1.59-1.6.37.06.85.39.97-.18.41 1.41-1.44 2.03-1.63 3Zm8.73 3.27c.11.23.36.45.71.67-.13.54-.73-.09-.86.45-.5-.35-.09-.74.15-1.12Zm-2.67 8.64c-.37-.22-.31-.46-.71-.67.67-.02.29-.61.64-1.01.78.53.34 1.11.07 1.68Zm1.12-1.31c-.4-.46-.4-.32-1.11-.93 1.07-.24 2.36-1.36 1.66-2.17.21-.22.56-.1.99.24.09-.53-.2-.36-.71-.67.36-.35 1.08.23 1.46-.06-.17 1.6-1.96 1.79-2.29 3.59Zm2.09-3.72c-.12-.91.95-1.04.99-2l.6.39c.02 1.01-.82.98-1.59 1.61Zm4.36-1.02c.83-.1.97-.5 1.42-.9.19.5-.53 1.88-1.42.9Zm2.69-3.33c.26-.22.83.37.96-.16.03.08.07.16.12.25-.31.1-.51.46-1.08-.09Zm1.74-1.73c.16-.28-.25-.82.31-.59a.92.92 0 0 1-.31.59Zm14.68-21.75c.37.26-.51.43-.66.59-.7-.69.23-.66.66-.59Zm-2.74-2.4c.26.36.16.74-.15 1.12-.42-.39-.48-1.1.15-1.12Zm0 7.13c-.06-.28-.02-.56.26-.85.67.34.28.73.73 1.09-.26.1-.6-.02-.99-.24Zm.78-7.02c-.68-.66.29-.52.45-1.14.16.54-.07.89-.45 1.14Zm1.53 6.08c-.22-.05-.44-.1-.59.03-.5-.35.07-.75-.43-1.1.14-.14.25.05.2.13.5.39.51-.45 1.07.09-.3.29.17.56-.25.85Zm.35-.99c-.67-.38-.33-1.11.14-1.13.51.36.1.75-.14 1.13Zm5.28-6.93c-.63-.49.25-1.58.93-1.02-.65.3-.41.72-.93 1.02Zm1.87-2.04c-.59-.48-.09-1.46.42-1.55.35.17.26.36.51.53-.25.49-.74.38-.93 1.02Zm11.67-12.93c-.3-.38-.14-.99.35-1 .83.36-.11 1-.35 1Zm.74-1.15c-.51-.77.62-1.61.97-2.42.25.52.46.15.71.67-1.01.64-1.17.87-1.68 1.75Zm13.3-18.6c-.76-.35-.4-.97.05-.98.77.3.03.65-.05.98Zm8.49 129.38c-.15.24-.3.48-.46.72-.12-.21-.24-.41-.4-.27-.27-.22.21-.47-.12-.69.21-.22.55-.1.98.24Zm-.66-140.75c-.25.85-.61 1.58-1.47 2.3 0-1.06.66-1.74 1.47-2.3Zm-2.81 148.86c-.37-.21-.31-.45-.71-.67-.2.53.44 1.01.16 1.54-.27-.18-.54-.35-.8-.53-.19.24.05.47-.17.71-.09.4.42.03.51.53-.15.24-.3.48-.46.72-.22-.17-.38-.2-.49-.12-.25-.54-.81-1.08-.37-1.66-.24 0-.55-.14-.89-.38.62-.07.14-1.05.94-1.02-.01-.28-.26-.55-.63-.81 1-1.03 1.55-1.64 2.22-3.03-.58.09-.46 1.43-1.51 1.04-.03.42.2.83-.25 1.27-.46-.19-.91-.01-1.09-.51.15-.37.68.22.88-.04.15-.37-.33-.69-.61-.39.57-1.71.97-2.45 2.21-3.45-.03.44.43 1.22-.25 1.27 1.24.82.96-.32.85-.88.27.13 1.15-.02.98.24.65.4-.44.72-.33 1.41.84-.01.94-1.72 1.4-1.73-.55-.23-1.22-.39-.83-.95 1.34 1 2.07.45 2.73-.25.11.23.35.45.71.67-1.69 1.1-2.39 5.22-4.2 7.02Zm3.78-7.7c-.93-.87 1.06-1.15.61-1.85.21-.18.27.36.49.12.73.88-.74 1.25-1.1 1.73Zm2.75-147.89c-.45.2-.52-1.92.65-1.01-.31.27-.87.48-.65 1.01Zm52.12 125.72c-.24-.22.06-.47.17-.7-.25-.13-.34.15-.48.3-.46-.11-.4-.87-.8-.53-.23-.34 1.01-.16 1.46-.06-.26.55.33.71-.35.99Zm2.63-5c-.24-.6-.46-.25-.68.17-.7-.7.68-.81 1.03-1.16.43.31-.31.66-.35.99Zm1.09-8.85c.48.79-.67.84.07 1.67-.61.64-1.22.63-1 1.58-.34-.22-.68-.44-1.01-.66.76-.61.93-1.96 1.94-2.59Zm-1.43 3.13c.71 1.13-.11 2.23-1.18 2.29.6 1.17.95 2.16-.57 2.68-.33-.75 1.05-1.27-.39-2.5 1.09-.99 1.38-2.17 2.14-2.47Zm-2.64 4.59c-.64-.35-.12-.74-.15-1.12.2.14.41.27.61.4-.16.24-.31.48-.46.72Zm-.85-6.26c.28.2.56.4.7.25.58.39-.05 1.13-.45 1.14-.49-.45-.53-.91-.25-1.39Zm-.53 1.28c.67.58-.41.55-.53 1.28-.35-.25-.54-.1-.9-.38.45-.36.89-.77 1.43-.9Zm-1.85 11.82c.15-.12.46.17.58-.02.11.18.23.36.51.54-.17.11-.59.13-.49-.12-.27-.04-.42.19-.79-.11.21-.05.41-.1.19-.29Zm.74 1.51c-.83-.42-.9-.42-1.31-1.06.55.05 1.67.45 1.31 1.06Zm-5.97 4.44c.28.2.56.4.7.26.21.17.01.21-.1.14.61 1.1-.6-.24-.77.31-.24-.22.07-.47.17-.71Zm1.53-113.86c.55.31.53.63.23.97l-.6-.39c.12-.19.24-.38.37-.58Zm-.59 9.39c.64.53-.13.9-.44 1.14-.68-.63.22-.67.44-1.14Zm-3.37 102.48c.13-.19.25-.38.37-.57l.6.39c-.26.22-.47.57-.97.18Zm.41-1.97.6.39c-.2.37-.41.71-.75.73-.5-.35-.09-.74.15-1.12Zm-.4-2.5c.27 1.72-1.78 4.1-2.02 5.39-.99-1.24 1.26-3.8 2.02-5.39Zm-2.85 6.69c.68.48-.13 1.02-.13 1.53-.79-.78.23-.82.13-1.53Zm-2.65-92.16c.11 1.72-.25 2.31-.72 3.81-.35-.32.4-.67-.53-.96.78-.97.72-1.89 1.25-2.85Zm-13.36 99.4c.38.41-.44.86-.53 1.28-.82-.9.09-.73.53-1.28Zm-1.94-159.71c.56 1.03-.33 1.25-.59 2.26-.25-.68-.26-1.97.59-2.26Zm.22 169.99c-.66.7-1.33.75-2.29 1.35-.57-1.05.74-1.32.97-2.41.44.35.61.72 1.32 1.06Zm-2.02-8.44c.92.58-.35.37-.35.98-.36-.52-.03-.72.35-.98Zm-.84 10.24c.4.4.23.83.64 1.23-.73-.2-.81 1.22-1.63.77.99-.25.08-1.55.99-2Zm-1.5 1.46c.52.54-.4.43-.57.44-.49-.26.04-.56-.33-.82.38-.47.52.85.9.38Zm-3.1 3.07c1.31-.17 1.06-1.73 2.64-2.35-.19 1.38-2.06 3.58-2.64 2.35Zm.53.95c-.09 1.29-1.99 3.04-2.63 5.01-.92-2.02 1.25-2.93 1.86-4.7.51.54.56-.08.77-.31Zm1.32-10.54c.53.36.75.96.24.97-.56-.3-.33-.64-.24-.97Zm-1.23 1.03c.92-.25 1.81.17 1.52 1.2-.15-.14-.11-.28-.31-.41-1.19 1.81-1.04 2.2-1.69 3.99-2.45-.79.18-3.8.48-4.78Zm-2.41-8.7c.28.19.55.39.69.25-.14 2.18-2.36 4.32-3.47 5.87-.02.5.97.47 1.08.1.48.51-.44.57-.55.86-.37-.22-.31-.45-.71-.67-.49-.23-.53.66-.84.87-.7-3.23 2.07-4.22 3.8-7.28Zm-5.36-143.21c.38.41.05 1.39-.75.73.13-.54.54-.39.75-.73Zm-1.42 156.49c-.21-.57.82-.13 1.05-.74-.2-.12-.27.08-.39.16-.27-.23.21-.48-.12-.7-.56-.14-.66.85-1.03 1.16-.55-1.22.67-2.5.44-3.37.57.06 1.16.62 1.21.79.76.31.23-.31.77-.31 0-.58-.7.18-1.19-.37.69-1.12 1.11-1.19.79-2.13.59-.27.32.24.75-.73 1.44.83-.3 1.11-.02 1.81 1.15.08.44-2.36 1.8-1.47-1.36 1.65-1.33 4.88-4.06 5.9Zm6.78 12.58c-.62-.26-.22-.55-.62-.81-1.32.76-1.46 2.33-3.15 1.81.96-.8.72-1.5.77-2.55.33-.06.72.07.97-.18.33.52.09.55-.26.85.85.37 1.49.24 1.94-.36.81.38.75.8.35 1.24Zm1.55-.21c-.63-.57.09-.65.46-.72.45.35-.29.71-.46.72Zm-.71-.66c-.72-.3-.48-.64-.82-.95.76-.65.74-.95 1.39-1.74-1.48.18.5-2.23 1.29-2.01-.03 1.92-2.26 3.08-1.86 4.7Zm8.67-7.78c-.21-.14-.42-.27-.63-.42-.94 2.57-2.59 5.49-5.04 7.51-.05.19.34.36.22.55-.28.29-.62.43-.95.6-.61-.44.11-.94.33-1.41-.28-.2-.55-.4-.69-.25.49-1.68 2.62-3.83 2.85-6.69.51-.33 1.05-.6 1.73-.5.1-.53-.7-.33-1-.65.08-.47 1.2-.15.75-.73.44-.31.4.03.89.38.16-.93.26-1.62.7-1.99-.58-.59-.6.24-.86.46-.41-.91.51-1.75 1.2-1.87.83.39.89 1.54 1.49.77.3 1.1-2.12 1.84-1.45 2.72 1.19-.77 1.72-3.17 3.3-2.93-.1 2.11-2.08 2.62-2.84 4.45Zm1.61-8.32c.16-.7.87-.04 1.04-.74.24.36-.17.75-.15 1.13-.35-.26-.54-.1-.89-.39Zm2.46-4.29c-1.61 1.38-2.45 3.01-3.82 4.63.39.22.43-.41.77-.31.61.43-.17 1.13-.75.73.15.67.3.81 1.22 1.21-2.14.27-2.5-1.11-1.18-2.61-.38-.07-.59.27-.86.46-.68-.35.27-.76-.15-1.12.19-.15.59.21.9.38.69-1.52.65-1.69 1.52-3.28.89.31.47-.72 1.45-.48.07-.51-.73.15-.8-.52.81-.9 1.29-.44 1.68-1.75-.55-.4-.35 1.1-1.06.33.74-.46.9-1.1.9-1.86.5.26.76.53.91.8.31-.34.03-.65-.52-.96.25-.87.93-.64 1.53-.62 1.01 1.74-2.18 3.32-1.74 4.97Zm2.77-93.09c-.07-.23-.01-.46.17-.7.99.67-1.42 2.27-.17.7Zm-.24-3.62c.96.66.23 1.39-.21 2.1-.95-.77-.19-1.58.21-2.1Zm14.04-28.69c-.27.41-1.35-.41-1.49-.78.53-.43.87.42 1.49.78Zm-.47.3c.22.17 0 .37-.07.56-.5-.49-.65-.14-1.1-.51.25-.38.79-.01 1.17-.05Zm13.58-82.36c.63-.63.48-1.23.61-1.84.49.14-.07.99.42.68.19.28-.39 1.73-1.03 1.16Zm3.36-3.91c.19-.2.74-.66.64-1.01.67-.34.1 1.72-.64 1.01Zm26.89-25.18c-.22-.18-.37-.2-.49-.12-.37-.37.38-1.01.64-1.01.4.27.01.56.62.82-.19.51-.68.27-.84.87-.22-.18 0-.37.07-.56Zm2.8 10.78c-.53-.44-.23-.92-.26-1.38.22.17.38.2.5.12.32.4.08.83-.24 1.26Z" style="fill:#ef4a6b;fill-rule:evenodd"/><path d="M1047.131 303.057c.625.516 1.931-.609 1.333-.756-.171.193-.266.578-.569.444-.678-1.182 1.5-2.421.941-3.254-.715-.385.179.905-.677.167-.281.918-.382 2.061-1.267 2.43.884.212.603.411.239.969Zm99.079-98.539c.9.534.871-.971.825-1.295-.369.695-.229.836-.825 1.295Zm-66.919 56.642c-.776-2.004 1.849-3.189 1.748-4.965-.353.498-1.533 1.225-1.083 2.142-1.489.518-.695 1.808-2.128 2.884.666.43.879-.284 1.463-.061Zm-1.027 1.162c-.591.405-.55-.305-.711-.669-.248.568-.661 1.146-.224 1.687.108-.6 1.584-.912.934-1.017Zm-5.674 2.196c-1.244-.751-.998 2.214-.881 2.274-.183-.645.961-1.346.7-1.987-.051.081-.266.057-.203-.133.179.072.312.032.385-.155Zm-4.01 2.266c.608-.122 1.547-.887 1.942-.36-.365.784-2.01 2.209-1.542 2.86.692-.934 2.176-3.073 2.056-4.561-.626.61-.564.756-1.21 1.45-1.548-.525-2.783 2.533-2.495 3.459.607-1.139 1.875-2.495 1.248-2.848Zm-.61 4.08c.166.365-.473.765.436 1.1.349-.528-.424-1.009-.454-1.519-.219.419-.623.292-.785-.107-.104.238-.411.484-.166.707.321-.06.608-.218.969-.181Zm.507 2.775c-.205.297-1.177.691-.532 1.281-.189-.599.89-.567.532-1.281Zm-25.937 20.104c-.437.41-1.562 1.041-1.394 1.736.383-.55 1.454-1.32 1.394-1.736Zm47.708 33.639c-.142-1.148-.768-1.366-1.096-.512.21-.192.278.198.016.417.384.171.381.552.603.395-.575-.575.405-.138.477-.3Zm-4.198 4.791c-.628.023-.575.734-.148 1.124.462-.344.172-.659.056-.98.113.074.302.032.093-.143Zm-48.263-30.541c-.129.701-1.166 1.025-.918 1.437.509-.434 1.316-.604.918-1.437Zm-11.244 16.271c.214-.566-.058-1.116-.068-1.675-.068.08-.142.15-.294.012l-.183.288c.789.663-.136.982.545 1.375Zm-7.391 7.996c.12-.08.19-.27.39-.15-.52.4-.62 1.5-.04 1.4-.51-.68.37-1.01.83-1.3-.15-.6-1.24-.38-1.03-1.07 1.3-.45.95-2.81 2.44-2.48.2.86-2 1.61-.76 2.97.54-.81.7-2.12 1.97-2.18-.12-.28-.23-.55-.33-.83.69-.29.29.36.69.25-.34-.6 1.32-1.11.06-.98 1.48-.75 2.31-1.69 2.6-3.18-.64.95-1.18.7-1.81 1.05.06-1.35 1.85-.95 1.38-2.15-.2.19-.51-.19-.61-.4-.24.38-.42.92-.95.6-.27-.4 1.24-.87.43-1.55-2.05 3.79-4.07 6.51-6.43 10.05.44-.03.7-.49 1.16-.46-.03.14-.18.28.01.41Zm4.92-6.35c.67.38.33 1.1-.15 1.12-.27-.36-.16-.74.15-1.12Zm9.06 4.089c.153-.146.279.057.401.262.047-.328.781-.686.35-.994-.116.378-1.117.375-.751.732Zm-9.028 6.112c-.146.704-.855 1.434-.792 2.129.96-.252.824-1.473.792-2.129Zm-2.089 1.485c1.094.887.821-.553 1.137-.886-.316-.172-.707-.535-.896-.382 1.197.78.2.903-.24 1.268Zm-7.37 1.289c-.118.083-.274.058-.493-.118 0 .781-.918.951-.717 1.568.709-.225 1.487-.553 1.21-1.45Zm3.898 6.827c.204-.728.647-.741.13-1.545-.127.302-.427.172-.565.444.79.261-.056 1.288.435 1.101Zm-3.918 2.121c-.359.928-1.61 1.806-.756 2.969-.386-1.227 1.023-1.973.756-2.969Zm-2.8.816c.135-.158.278-.3.587-.022-.063.095-.125.191-.185.285.812.587.22-.727-.235-.967-.384.019-.607.36-.167.703Zm100.442 68.327c-.312.606-1.153.68-.625 1.424.411-.132 1.052-.674 1.372.083-.302-.671 1.444-1.183.825-1.294-.493.159-1.504.768-1.572-.213Zm-107.598-64.249c-.051.66-1.091.708-.734 1.149.256-.452 1.46-.435.734-1.149Zm86.2 99.541c-.042.915-1.337.596-1.026 1.162.321-.06.532-.41.969-.182-.358.735-2.157.988-.917 1.438-.305-.553.798-.714 1.243-.613-.343-.459-.062-2.249-.269-1.804Zm-3.044 4.322c-.765.097-1.8-.796-1.04-1.492-.58-.589-.597.242-.86.454.882.679 1.307 1.818 2.319 1.722-.423-.217-.273-.455-.419-.683Zm-1.067 2.561c-.797.044-1.2-.871-1.681-.486-.012.422.978.254 1.499.775-.123.191-.246.383-.367.575-.335-.22-.672-.438-1.006-.657.319.886-.433 1.583.564 1.793-.457.006-.525.49-.258.849.972-.908.445-1.714 1.467-2.299-.234-.175-.446-.352-.218-.55Zm-10.886 10.804c.207-.105.425-.185.678-.17.683-1.816-.551-.199-.678.17Zm.4.265c-.15.16-.26.31-.34.47.55.12 1.09.23 1.61.33.06-.1.1-.2.12-.3-.5-.18-1.13.15-1.39-.5Z" style="fill:#ef4a6b;fill-rule:evenodd"/></g></g><g><ellipse cx="1076.453" cy="402.064" rx="45.94" ry="56.321" transform="translate(136.502 1063.048) rotate(-55.596)" style="fill:#ffc197"/><g><path d="M1104.284 411.766a8.896 8.896 0 0 1-3.124-.568l-57.213-21.352a8.935 8.935 0 0 1-5.248-11.497 8.937 8.937 0 0 1 11.501-5.246l57.213 21.352a8.935 8.935 0 0 1 5.248 11.497 8.95 8.95 0 0 1-8.376 5.814Z"/><path d="M1076.31 434.389a8.896 8.896 0 0 1-3.808-.856 8.935 8.935 0 0 1-4.271-11.894l12.714-26.946c2.107-4.464 7.431-6.374 11.898-4.269a8.935 8.935 0 0 1 4.271 11.894l-12.714 26.946a8.941 8.941 0 0 1-8.09 5.125Z"/></g></g><ellipse cx="1287.587" cy="202.184" rx="37.266" ry="12.95" transform="translate(31.193 548.931) rotate(-24.353)"/><path d="M1349.944 408.432c-11.905 0-27.96-2.604-43.888-13.237a5 5 0 1 1 5.553-8.317c26.651 17.793 54.124 9.688 54.399 9.605a4.998 4.998 0 0 1 6.244 3.319 4.998 4.998 0 0 1-3.319 6.243c-.625.191-8.058 2.386-18.988 2.386Z" style="fill:#231f20"/></g><path d="m1249.684 621.138 5.227-34.995-196.35-29.327-5.509 36.884-45.524-6.257-77.964 13.8c-.01 0-144.862-44.418-144.872-44.427 0 0-158.732-24.148-234.816 63.9-42.54 39-60.67 92.62-43.1 150.08 17.739 57.998 172.2 107.953 172.2 107.953l-42.789 177.773-32.551 501.054 811.828-13.309V1340.98l102.522-682.405-125.023 7.546-85.08-36.864-58.199-8.121Z" style="fill:#f3ead9"/><path d="M843.018 573.679s-71.559 293.08-125.751 376.1c-25.48 39.035-106.417 84.957-106.417 84.957l-279.714 223.308c-8.322 123.737-145.443 135.103-197.84 124.307-73.018-15.054-111.617-46.477-128.034-109.75-15.534-59.833 4.258-126.48 47.117-171.02l442.15-452.919s32.318-40.762 93.474-69.962c27-12.902 59.683-22.994 97.571-27.414 31.539-3.68 69.7-.303 99.119 5.531 33.953 6.732 57.082 16.404 58.288 16.844.008.012.027.017.037.019Z" style="fill:#f3ead9"/><g><path d="m1448.896 1055.681 311.249 355.528-239.531 33.068 87.891 243.113 387.127-18.14c65.279-3.725 125.162-40.624 152.891-99.822 26.22-55.972 22.779-122.314-11.198-173.951l-402.489-608.92c-48.874-74.272-134.163-118.737-218.23-127.98l-67.71 397.104Z" style="fill:#f3ead9"/><g><path d="M1482.608 902.379c.54-.124.793 1.357 1.212 1.877-.937.16-.727-1.06-1.212-1.877Zm6.716 15.493c-.112-.997 1.029-.104 1.213.807-.612.886-.69-1.189-1.213-.807Zm-15.779 22.047c-.126-1.035 1.14 1.482.855 1.705-.152.146-.255-.008-.354-.176-.082-.259-.217-.222-.355-.172-.134-.493.548-.587-.146-1.357Zm23.347-6.993c.099-.83 1.18 2.006 1.642 2.728-1.034-.419-.775-1.363-1.642-2.728Zm-7.677 8.234.571 1.135c-.709.649-1.506-.935-.571-1.135Zm3.283 5.463c1.452-.067.686 2.083 1.57 3.122-.647-.261-1.589-2.476-1.57-3.122Zm-.902 19.048c.834.071 1.519 1.612 1.714 2.336-.645-.377-1.125-1.653-1.714-2.336Zm2.143 4.259c.837-.097 1.212 2.528 2.284 3.472-.881-.171-2.087-2.926-2.284-3.472Zm-26.46 21.105c.686.143 1.214 2.005.217 2.033-.565-.916.722-.934-.217-2.033Zm28.324-13.126c.867-.153 1.428 1.401 2.068 2.507-.435.499-1.333-1.752-1.282-.409-.732-.101-.321-1.424-.786-2.098Zm3.421 4.671c-.146.795-.478.091-.995.156-.052-.596-.773-1.52-.071-1.75.001.287.009.577.214.964.285.218.637.043.852.63Z" style="fill-rule:evenodd;fill:#e9d9bb"/><path d="M1499.097 982.189c1.014.487.195 2.13 1.428 2.838-1.202.178-1.793-2.066-1.428-2.838Zm23.787 2.431c.709-.631 1.386 1.599.503 1.528.012-.423-.104-.905-.503-1.528Zm.112 28.536c2.545 3.527 3.719 7.738 5.785 12.038-4.225-2.874-3.172-8.439-5.785-12.038Zm5.287 12.652c.877-.566 1.218 1.853 2.069 1.437.204.742.375 1.472-.143 1.86-1.05-.675-1.224-2.73-1.926-3.298Zm11.749-.678c.069-1.361 1.074 1.114 1.424 1.77-.153.142-.254-.009-.353-.176l-.429.218c-.411-.582-.115-1.876-.641-1.812Zm1.503 5.661c.68.175 1.379.236 1.853 1.548-.59-.659-1.289-.724-1.853-1.548Zm-45.731 41.017c.691.106 1.34.469 1.922 1.155-.231.311-1.074-.84-.781.044-.439-.076-.821-.477-1.141-1.199Zm-1.914 7.418c.247.061.495.118.784-.046.026 1.79.458 1.78 1.643 3.802-1.358-.247-2.19-2.366-2.427-3.756Zm8.756-2.357c.889.09 1.453 1.995 2.143 3.189-.918-.45-1.151-1.517-2.143-3.189Zm-6.472 6.9c1.188-.802.657 2.006 1.356 1.091.539-.237.518.916.216.96 2.16 3.852.131 1.525-.358-.174-.144-.272-.368-.085-.568-.065-.594-.787-.051-1.023-.646-1.812Zm3 5.963c.632-.271.987.987 1.426 1.772-.572-.052-1.008-.857-1.426-1.772Zm1.074 2.666c.601-.472.986.258 1.353 1.093-.527.056-1.029-.024-1.353-1.093Zm1.425 1.771c1.03-.546.826 4.347 2.211 2.793-.08.555-.572 1.24-1.137.944-.589-1.8-.41-1.902-1.074-3.737Zm54.938-24.306c.456 1.007 1.176 2.147.506 2.601-.483-1.019-1.307-2.209-.506-2.601Zm-46.873 36.601c.486-.197.818.482 1.138 1.201-.546.54-.922.111-1.422.378-.057-.603.55-.873.284-1.578Zm6.055 2.964c.487.171 1.079-.245 1.426.7-.544.153-1.092.329-1.426-.7Zm1.856 3.692c.644-.343 1.035.724 1.498 1.376-.643.343-1.033-.722-1.498-1.376Zm3.077 9.858c.95.478.524 2.102 1.36 3.231-.957-.48-1.142-2.402-1.36-3.231Zm54.697 5.128c-.133-.35.267-.438.499-.612.637.815.103 1.052.286 1.639-.788.31-.247-1.454-.785-1.027Zm.363 6.606c.478.331 1.291.467 1.143 1.201-.213.11-.426.22-.642.328-.398-.624-.513-1.109-.501-1.529Zm4.775 1.478c.144-.374 1.47 1.845 1.999 2.905-.788-.301-1.382-1.66-1.999-2.905Zm-.275 6.932c.747.149 1.529.12 2.068 1.44-.716-.33-1.47-.46-2.068-1.44Zm3.492 3.21c.48-.148.734.955 1.212.805.161.223.051.311-.071.394-.208.041-.146.215-.07.394-.532-.031-1.205-.949-1.072-1.593Zm6.852 11.488c.867-.354 1.854 2.656 1.927 3.297-.534-.295-.976-2.696-1.927-3.297Zm136.925 196.982.642-.331c.859.447.844 1.673 1.285 2.557-.628-.831-1.359-1.068-1.927-2.226Zm13.257 7.127c.41-.127.73.238.999.916-.273.08-.35.257-.286.502-.537.187-.751-1.182-.713-1.418Zm1.493.303c.573.316.448 1.074 1.214 1.877-.681.56-1.07-.506-1.497-1.374.271-.08.347-.259.282-.503Zm7.907.228c.873.682 1.066 1.138 2.138 2.118-.127.22-.255.443-.139.788-.457.373-.532-1.355-1.07-.526-.147-1-.439-1.021-.929-2.379Zm5.257 43.047c.978.501.646-.049 1.281-.658.23.524.562.465.785 1.027-.661-.282-1.631 1.156-2.066-.369Zm13.452-3.698c.692.287 1.472 1.366.289 1.641-.598-.795.312-.846-.289-1.641Zm11.721 10.28c-.26.43-.58.83-.81 1.27-.62-.33-1.78-3.2-.86-2.78-.5-.89-1.1-1.56-1.28-2.55.69-.54 1.77 2.29 1.64 2.73.21.28.46.35.73.34l.58.99Z" style="fill-rule:evenodd;fill:#e9d9bb"/><path d="M1512.932 1000.099c0 .08.01.16.02.24.02-.07.02-.15-.02-.24Zm253.91 392.77c-2.56-2.95-3.44-7.86-5.5-11.47.56-.23.44-.79.78-1.12a.3.3 0 0 1 .08.04l-6.35-10.96c.82 1.87 1.4 3.63 1.64 5.44 1.19-.39-.21.82.14 1.36.64.58.92-.8 1.21-.27.15.29.35.25.5.46.74 1-.01 1.28.22 2.03.77.05 1.27 1.55 1.86 2.62-1.5 1.05.55 2.58 1.07 3.74 2.11 4.77 4.47 11.29 6.43 14.93-.85-3.21-1.86-3.91-2.08-6.8Zm-32.55-16.6c.01.03.02.06.01.09.02-.01.03-.02.05-.03l-.06-.06Zm17.57-5.72c.03 1.1-1.05-.51-1.43-.7.04-.71-.15-2.63-.64-2.89.13.36-.18.49-.5.62.35-1.68-.91-3.21-1.43-4.98.78 1.84.89.75 1.78 1.94-.34-1.39-.41-2.23-1.64-2.73.21-.11.43-.22.64-.33-2.05-2.31-2.73-7.17-5.14-10.22.23-.18.63-.27.5-.62-2.29-2.57-3.04-7.66-4.64-8.69.16-.12.34-.15.51-.12l-1.43-2.47c-.3-.2-.58-.46-.8-.82-.29-.47-.39-.9-.44-1.32l-2.69-4.62c-.11.18-1.28-1.59-1.72-2.98l-1.41-2.43c.54 2.55 2.3 4.51 1.2 6.09-.66-2.16-1.56-2.66-2.79-3.94.03-.49.3-.85.08-1.46.71.17.67.52.92 1.31.6-.57.71-1.38.34-2.43l-3.01-5.18c-.21-.25-.45-.67-.67-1.16l-4.43-7.64c.55 1.45.69 2.6-.15 2.25.18-1.83-1.62-3.27-1.97-5.9l-.34-.59c-.02.09-.04.16-.05.2-.45.34-.65-.7-1.07-.52-.34-.79.52-.19.74-.34l-183.5-316.29-.12-.21-3.62-6.23c.16.97 1.28 2.42.56 2.95-.46.03-1.08.99-1.43.37-2.12-3.25-1.35-6.13-3.14-7.32.93 1.78.02 4.02 1.51 6.73-.23-.39-1.95.5-1.07.55 1.32-1.05.91 1.2 2.07 1.44.44 1.01-.02 1.57-.57 2.08-1.36-.38-2.34-2.83-3.64-3.49-.87.51-.73 1.64.15 2.43.49 5.19 6.2 11.54 8.07 16.58.28.57-.4.66.14 1.35 1.49 2.41 4.71 5.94 4.36 9.2 1.24 1.59 1.71 3.19 2.57 5.12.61-.19 1.11.28 1.5 1.37-.67-.25-.26.17-.86.44-.45-.7-.89-1.5-1.42-1.77-.12.51.74 1.51-.29 1.57-.95-1.91-2.21-2.07-3.21-3.71.19.59-.35.83.29 1.64 1.83.59 3.22 3.65 5.2 3.41.14.73-.58 1.61-1.21 1.33-.03 2.75 2.69 5.51 3.01 8.11-.79.41-1.31-.66-2-.76.92 2.11-.72-.01-1.21.26 1.47 1.16 2.66 3.9 4 5.81 4.58 15.55 15.47 30.69 21 44.97 2.57 3.77 4.78 8.02 6.42 10.63 1.79 1.16 4 4.28 4.14 6.1.89.55 2.63 3.87 3.57 5.58-.33-.45.05.93-.15 1.24-1.25-2.36-1.75-4.19-3.13-4.11-.07-.39-.1-.76 0-1.07.15.2.28.56.49.46-.63-2.02-1.18 1.11-2.06-.37 1.02-.79-1.21-1.87.42-2.36.56.83.08 1.42.93 1.31-1.18-2.6-2.68-4.82-3.57-6.03-.27 1.36 1.74 2.84 2.14 4.26-.13.44-.64.68-.78 1.12.23 1.76 1.63 2.79 1 4.13-2.67-3.54-.84-3.45-2.21-6.01.08.16-.01.41-.21.11-1.09-1.72-1.16-2.73-2.36-4.15-.01-.81.38-3.44-1.29-2.56.75 1.02 1.5 2.35.79 3.17.82 2.65 3.18 3.2 3.14 5.18-.69-1.19-1.46-1.92-2.35-2.01.48 1.29 1.33.47 1.78 1.94-.34.09-.59-.28-.92-.24 1.06 1.13 2.66 3.39 1.92 4.37-1.57-2.17-2.73-4.24-3.99-5.81.31-.13.78-.48.28-.5-.14.08-.28.15-.42.22.35 3.02 2.69 3.24 2.07 5.73-.51-1.35-1.8-2.13-1.72-3.41-1.4.1-3.01-2.59-3.49-4.28.44 4.7 4.57 6.45 6.56 9.85-.64.64-1.76-1.61-1.92-.09 3.21 3.27 3.91 9.59 5.79 13.11-2.46-2.99-4.27-5.78-5.21-8.76-.38-.92-.26 1.04-.79.05-.37-2.69-3.42-7-5.71-10.29.37-.04.53.15.64-.33-2.42-.93-2.84-4.79-4.28-6.38.07.25.28.57.07.68-1.62-4.47-4.46-10.16-7.63-13.59.28-.14.57-.29.85-.44-3.02-3.96-7.22-10-8.64-15.57-.44.29-.79.11-1.07-.52-5.53-12.43-14.66-25.29-19.73-37.02.07.23.04.41-.25.47-1.47-5.92-4.29-10.27-6.79-15.11.01-.77.47-1.33.57-2.07-.93.47-.29.67-1.21 1.33-.16-2.68-1.77-5.72-3.43-7.88.21-.11.42-.22.64-.33-1.65-1.3-3.07-3.38-3.27-5.22-.06.18-.28.27-.51.37-.92-1.38-1.64-2.56-1.01-3.06-.58-.67-.96-1.74-.5-2.6-.73-.99-1.02.57-1.56.09-4.44-11.28-12.16-25.93-18.64-37.6 4.61 9.86 9.04 19.84 14.85 29.54-.63.26 1.19 1.72.08 1.74 3.49 5.13 5.32 13.2 8.99 17.9-.22.17-.63.26-.5.61.7-.65 1.14.18 1.64.59-.65 1.07 1.34 2.64.94 4.52 1.13-.09 1.91 3.87 2.07 4.66.42.14.93-.14 1.28.41-.7.57.78 1.35.36 2.32 1.37.34 1.54 2.14 2.5 3.36-1.17.9.35 2.28 1.07 3.74.62.47.34-.62.78-.05 3.08 7.54 7.14 14.26 10.29 22.6-.16-.2-.29-.56-.5-.46.28.96.86.24 1.14 1.2-.6.27-.19.7-.85.44 1.11 1.13 1.51 3.15 2.07 4.65.83-.02.3-.71.57-1 .25.73.7.41.92 1.31-.42.21-.66-.64-1.14-.13.39 1.46 1.19.59 1.57 2.05-1.1.35.49 1.55.29 2.71 1.07.16 1.15.27 1.57-.09.19.87.33 1.51 1.07 1.59-.22.11-.43.22-.64.33.47.46 2.42 2.3 1.57 3.13-.36-1.37-2.11-2-2-3.98-1.67 1.01 3.16 5.43 2 7.19-3.43-6.16-5.48-11.14-8.64-17.71-.42.07-.33.7-.64.33-.13-.57-1.1-1.54-.64-1.82.69.06.07 1.45 1 .92-.62-1.48-2.12-4.07-2.64-4.72.26.57.32 2.13-.64 1.4-1.52-5.54-5.29-11.29-7.43-15.84-3.1-6.6-5.86-13.42-9.07-20.72.14-.07.28-.14.43-.21-2.33-2.15-2.04-5.22-4.22-6.78-.2-.88-.39-1.76.22-2.25-.38-.44-.59-1.8-1.08-1.6.71 1.21.71 2.06-.06 2.54-.89-1.54-2.87-5.79-3.43-7.89-2.14-2.24-3.49-6.69-5.43-8.65.19 1.97 3.53 5.01 1.58 6.34-.4-2.05-2.55-2.68-2.79-5-.7.45-1.01-.2-1.28-1.48-2.37-.45-2.8-5.66-5.07-7.41.18-.91 0-2-.21-3.1-.78.17.22 1.17-.71.72.12.56 1.09 1.53.64 1.81-3.47-5.94-6.23-10.1-9.07-15.35-1.98 1.06-1.92-2.87-2.85-3.54-.35 1.78-1.37-2.26-1.93-3.3-1.36-2.54-3.41-5.05-4.49-6.27-.37 1.81 1.83 2.66 2.07 4.66-.54.16-1.07.18-1.5-.31.25-.41-.93-1.92-1.49-1.37 1.07 1.43 1.13 2.39 1.43 3.91-1.46-1.34-3.86-2.84-3.5-5.35-.38-.18-.7-.45-.99-.78l-4.21 36.34c.9 1.24 1.83 2.51 2.19 3.87-.94.26-1.22-2.95-1.85-1.55 2.87 3.62 2.8 7.81 4.43 10.95-.54.15-.83-1.14-1.43-.7.5.86 1.07 2.97 2 3.98-.24.24-.2.61-.71.72 1.56 1.85 1.54 4.14 2.29 6.69.68.14.43-1.15.86-.44.28.57.56 1.13.85 1.7-.47-.22-.99.04-.71.73 1.58 2.24 2.52 5.52 4.5 7.34-1.22-.45.17.83.21.96 0 .05-.43.17-.43.22 1.16 4.83 7.61 12.53 7.36 15.16.25-.74 2 .56 1.78 1.94-.48.51-.71-.34-1.14-.13 3.84 6.68 7.13 14.48 11.28 22.44-.06-.24-.27-.56-.07-.68 1.61 3.91 1.81 5.81 3.86 8.74 1.07 3.02 3.98 8.21 4.64 9.77 0-.32-.37-1.85.21-1.18.15 3.75 1.5 6.36 3.72 10.6-.85.84.66 3.92 1.72 3.41-.35-.99-.79-1.4-1.29-1.49.12-.51-.74-1.5.28-1.57.72 1.45 3.23 5.87 1.22 4.02 2.99 4.01 2.08 6.16 4.64 9.77-1.71 1.76 2.67 6.21 1.36 6.44 1.06.78 1.76 2.45 1.43 3.92-1.78-2.18-2.23-4.08-3.49-5.36.54.91.91 1.74.57 2.21 1.34.91 1.87 2.22 1.86 3.7.92-.54.7 1.08.71 1.41.87 0-.3-1 .57-1 1.29 1.67 2.1 4.09 2.36 6.29-.3-.51-.62-.87-1-.92 1.11 1.43.86 3.8 2.28 3.48-.17-.66-1.2-1.73-.78-2.1 1.39 1.87 1.88 3.49 2 5.05-.16-.39-1-2.07-.79-1.03.46 1.43 1.14 1.57 1.71 2.34-.11 3.65 1.48 5.45 2.51 8.72.97-.01 1.61 1.81 2.35 3.08-.3.14-.4.37-.49.61-.52.37-.73-1.02-1.29-.41.52 1.18 2.17 3.58 2.08 5.72.8.49 3.01 3.67 1.85 4.77-1.18-1.89-2.3-3.51-2.42-4.83-.88.06-2.54-6.06-3.57-4.96.19-.4.46-.77.07-1.46-.55-.24-1.29-.97-2.28-1.33 1.6-.65-1.57-1.34-.36-2.32-.27-1.01-.85-.3-1.21-.81-.18-.87.18-1.48-.15-2.43-4.88-5.62-6.64-13.92-10.35-20.05.51 1.54 1.49 3.3 1.14 4.41-.31-.46-.11-1.72-.85-1.7.05.6.64 1.45.43 1.92-1.14-1.35-.52-2.95-1.15-3.34.72 1.69-.84.34-.85.44-.09.74.93 1.31.5 2.6.44-.14.31-.56.71-.72.23.61-.3.85-.07 1.46 4.17 2.85 5.24 10.03 8.71 14.11-.98.81.1 1.52.57 1.14.32 1.45-.03 1.88-.28 2.65 2.03.44 2.19 4.7 4 5.81-.42 2.4 3.05 5.62 3.85 7.66-.06-.24.01-.42.29-.5.59.96 1.14 1.45.92 2.38-.01-.01-.03-.01-.04-.02l6.26 7.15c.15-.25.25-.5.84-.03-.13.23-.15.54-.09.89l192 219.36c-.08-.39-.04-.79.17-1.22.93 2.73 2.37 2.6 3.56 3.89 1.47-.25 1.77-.98 1.66-1.92-.2.1-.4.2-.59.3-.39-.55-.23-.83-.36-1.25.28.08.56.15.42-.22.57-.2 0 .58.52 1.08-.15-1.14-.86-2.57-.8-3.79-1.52-2.28-2.12-6.55-3.79-8.06.19 1.02 1.55 2.77.51 3.67-1.36-.05-.32-1.95-1.43-1.77.34 1.4 1.11 1.68.5 2.6-.19-.37-.5-.06-.71-.34-.29-1.16-.35-2.61.18-2.96-.29 0 .2-1.14-.47-.83.03.52-.48.77-.78 1.12.75 1.37.89 2.44.21 3.11-2.16-1.51-1.79-3.82-3.99-4.74.35-.49-.15-2.49-.86-2.78.29.5.13.77-.35.9-1.17-4.6-2.48-6.92-4.07-10.78 1.14.71 1.11 1.46 2.06 2.52.06-.76-.28-1.71.21-2.26.93.73 1.7 1.33 2.36.94.95 1.49 2.23 2.1 2.56 4.04.63-1.08-.54-2.15-1.21-2.95.21-.11.14-.36.28-.5 1.84.77 2.47-.31 3.99-1.69 4.04 5.28 3.91 11.39 8.07 16.58.84 2.2.75 4.99 2.64 7.93-.57.15-.2.76-.92.83 1.78 2.25 2.29 4.91 2.43 6.98 1.6-.49.74 2.64 1.93 3.3-.25.26-.19.52-.64.32 1.89 1.16 1.11 3.12 1.63 5l.94 1.07c.37-.13 1.31.4.43-1.17-.69-.14-.44 1.14-.86.44 1.34-.59-.11-2.81.57-4.22-2-.98-1.64-3.16-2.72-5.4.31-.43 1.36-1.6.35-1.97.69 1.1-.86.17-1.21.26-.83-1.62-.9-3.45-1.43-4.98 1.25.01.9.13 1.28 1.49.79-.44.45-.63 1.29-.66-.39-1.45-1.08-1.18-1.64-1.66 1.62-.32-1.09-3.54-.87-4.92-.43.29-.79.12-1.06-.52.36-.05.53.15.64-.33-2.77-5.42-5.97-10.03-7.93-15.23-1.54-1.29-4.59-5.82-2.28-6.69-1.84-6.52-5.82-12.12-8.43-18.9-2.13-1.6-3.27-4.39-3.85-6.56 0 .22-.8-.41-.79-1.06.03-2.46 2.14.46 2.98 2.2-.57-1.22 1.52-.58 2.15-.55 2.14 2.9 3.38 5.51 5.35 7.97.28.79-.21 1.19.22 2.04 1.44.77.85 2.72 1.78 4.08.54.78 1.76.91 2.21 1.73.5.9.02 2.2.43 2.99.24.48 1.03 1.11 1.28 1.49-.02-.04-.52.02-.56-.07.42.85 1.23.96 1.64 1.66.07.13-.51.53-.5.62.15 1.21 1.91 1.89 2.56 2.96-.2 1.14-1.45-.46-.92.84.77-.3 1.25.96 1.93 1.15-.78 1.41 1.71 3.15.36 3.39 1.36 1.73 3.58 4.86 4.42 6.66-.13-.35.18-.48.5-.61 1.05 2.14 1.42 2.83 2.42 3.75-.21.12-.37-.09-.57-.06 1.74 3.14 3.26 5.81 4.01 7.95.42.14.87.14 1.27.42-.19 1 .14 1.06.93 1.31-.11.77-1.08.97-.28 1.57.12-1.27 1.27.76 1.71 1.27-.42.22.12.91-.57 1.01-.45.34-.65-.7-1.07-.53 1.01 1.84 1.64 1.51 2.71 1.11 0-.85-.57-1.99-.64-2.88-1.49.09-2.28-3.34-2.14-4.26.19.37.5.06.71.35-.23.17-.63.26-.5.61 2.15.98 2.3 3.13 3.28 5.46.51-1.1.92.2 1.78-.2-1.13-2.24-2.34-4.46-3.28-6.53Zm-212.71-312.44c.85-.57.81 1.13 1.07 1.59-.59.3-1.18-1.08-1.07-1.59Zm-67.59-58.55c-.17-.48-.55-1.71-1-1.99-.21-1.27 2.07 1.84 1 1.99Zm3.65 8.85c-.57-1.55-1.32-2.04-2-2.91.31-.47 1.15 1.23.92.24.39.07 1.93 2.5 1.08 2.67Zm1.7-51.63c-.37-1.27-.6-1.14-1.28-2.56.63.06 2.44 2.18 1.28 2.56Zm40.01 146.35c1.37.45 1.37 1.85 2.5 3.36-.89-.47-2.41-1.93-2.5-3.36Zm15.15 38.68c-.59-.79-.3-1.15-.64-1.82.59-.02 1.66 1.55.64 1.82Zm-5.63-2.12c.91.33.99 2.05 1.43 2.85-.77-.26-1.24-2.17-1.43-2.85Zm7.07 10.31c.22.71.3 1.67 1 1.99.1.82-2.42-1.51-1-1.99Zm179.8 152.43c-.52.38-.85-.31-1.21-.8.58-.28 1.35.12 1.21.8Zm2.38 19.15c-.74-.38.09-1.21-.58-2.2-.2.11.02.43.08.67-.34.1-.51-.8-.86-.63-.33.55.82 1.83 1.07 2.67-1.6-.69-2.75-3.75-3.85-4.45.24-.67 1.07-.8 1.28-.66.59-.63-.29-.65-.14-1.36-.68-.65.01 1.12-.78 1.12-1.12-2.18-1.08-2.81-2.29-3.48-.13-1.06.38-.13-.64-1.81 1.41-.9 1.22 1.66 2.14 2.12.42-1.42-2.66-3.29-1.22-4.02 1.55 3.66 5.37 7.31 5.79 12.03Zm-7.59-28.98c-.73-.12-.87-.78-1.07-1.59.95-.52.34.9 1.07 1.59Zm-.79-6.38c-1.31.02-.84-.96-1.36-2.16.59-.04.88 1.55 1.36 2.16Zm-110.49-128.37c-.47.1-.67-1.29-1.28-.41-.91-2.13-2.02-3.11-3-4.89 2.07 1.84 2.66 2.97 4.28 5.3Zm-15.28-29.32c-.94.16-.73-1.06-1.21-1.88.81-.22 1.02 1.21 1.21 1.88Zm-10.91-12.62c-.21.11-.42.22-.64.33-.19-.37-.38-.75-.57-1.13.52-.38.9.03 1.21.8Zm-26.41-46.11c2.57 1.09 3.06 5.6 4.93 8.19-2.24-1.16-3.73-5.98-4.93-8.19Zm22.64 50.91c-.34-1.18.76-.65 1.35-1.05.42.83-.86 1.29-1.35 1.05Zm1.29 1.49c-.38-.76.23-1.03.28-1.58.27-.08.44.43.64.74-.72.08-.35.69-.92.84Zm29.48 48.46c-.96-1.82-.97-3.18-2.01-5.04-.12.86.3 2.15 1.22 4.02-3.21-3.56-4.72-6.13-6.57-10.92-.96.53.17 2.08-.49 2.75-1.06-3.24-3.4-4.61-4-6.87.14-.08.29-.15.43-.23.39-.36.61.2.85.64.39-.83-.88-1.45-1.42-.7-.48-.93-1.07-1.23-1.5-2.45.49-.2.82.48 1.14 1.2.48-1.31-1.64-2.74-2.78-3.93-.84-.84.64-.54.21-1.18-.98-.89-4.18-6.94-4.07-8.63-.64-.59-.89-.66-1.35-.02-.65-.96-.73-1.64-.22-2.03-1.62-.55-1.62-2.74-1.93-4.37-.53-1-.4.96-.78.04-.38-.72-.02-.43.28-.5-.52-1.07-1.35-.39-1.78-1.94.65-.04 1.33-.22 2.06-.71-.34-.61-.96.35-1.42.38-.82-1.12.05-1.41-.36-2.32-.33.41-1.02.39-1.56.09-.63-.34-1.05-1.06-.44-1.92.67.89.37 1.32.44 1.92.51-.3.39-.87 1.06-.55-1.28-1.07-.82-1.43-1.21-2.95-.56.14-1.54-.22-1.92.99-.13-1.06-.51-2.25-.58-3.28.57-.25.9.73 1.28 1.48.31.48.58-.83.79-1.11-.44-.58-.16.51-.79.04-.26-.7-.2-1.24-.78-2.09.18-.7.28-.12.85-.44-1.53-1.48-2.58.11-3.35-1.86-.2.26-.25.59.01 1.07-3.39-2.22-3.14-8.12-5.79-9.89.02-1.14.49-.71-.5-1.53.78-1.05 1.67-.2 2.6.56-.11-.33-.24-.65-.39-.98.83-.03.63-.16.92-.83-.69-.87-.85 1.39-1.63.48.38-.73-1.6-2.17-1.43-3.91-.28-.36-.39.17-.29.5-.77-.19.12-1.35-.57-2.2-.1.3-.06.68 0 1.07-.73.14-.1-.71-.57-1.14-.2.11.01.43.07.68-.61.19-.92-1.35-1.49-1.38.2-.66.32-2-.79-2.1-.9-4.21-2.89-8.32-4.79-12.19.21-.11.43-.22.64-.33-2.18-2.32-2.95-5.06-4.42-7.73 2.6 1.21 3.14 5.26 4.92 8.19.98 1.61 2.53 2.55 3.07 4.5-.71.69-.91-1.42-1.5-1.38-.19.35.49.71.5 1.53 3.64 1.79 4.86 8 7.14 12.06 1.86 3.34 4.3 5.77 5.28 8.37-.12.3.11.77-.35.9 1.07.68.93 2.2 1.71 3.41-.5.74-.7-.05.14 1.35-.67-.32-.55.24-1.06.55-.53-.69.16-.78.21-1.18-.54-.24-1.05-.65-1.64-.59-.14-.64.32-.98.28-1.58-.35-.54-.86-.26-1.21-.8-.42.93 1.25 2.68.66 3.94 1.8 1.41 3.48.47 4.91 2.85.43-.43-.07-1.32-.22-2.03 2.11 1.57 1.89 4.31 3.71 5.24-.03.48.33 1.16-.07 1.46.54.73 2.29 2.04 1.64 2.73.3.53.81-.16 1.07.53-.44 2.59 3.45 5.43 3.43 7.89 1.66.91 3.17 4.4 3.42 5.74 2.39.68 4.36 6.26 4.43 8.8 1.2 2.15 1.64 1.64 2.64 3.65-.24-.64-.09-2.16-.57-2.2.81-.36 1.37 1.05 2.35 3.07-.02-.04-.4-.17-.5-.46 1.08 3.06 6.4 7.63 5.36 12.26-.54-1.15-1.12-2.1-1.79-2.57.65.66 1.26 4.16 2.72 3.88.55.84.32 1.3.07 1.75-.54.16-1.09.33-1.42-.69-.57.15.77 1.23-.21 1.17Zm.35.18c1.06-.49 1.71 1.3 2.43 2.69-1.19.34-1.93-1.58-2.43-2.69Zm4.35 3.84c-.29-.17-.55-.52-.78-1.02 1.08-.52 2.27 4.45.78 1.02Zm100.15 122.24c2.54 2.7 4.41 8.03 5.93 11.25.57.6.83-.71.42-1.29.75-.02.55 1.24.86 1.7-.37.23-.63-.11-1 .16-.42.37.62 1.44.78 2.1-4.01-2.81-4.38-7.54-7.49-13.31.32-.13.63-.26.5-.61Zm3.74 25.6c-.15-.48.5.05.28-.5 1.25.07 1.26 2.39 1.71 3.4-1.28.23-1.04-2.67-1.99-2.9Zm.86 3.85c-.2-.53.04-.84.56-1.01.24.47.48.95.72 1.42-.28-.08-.55-.15-.43.22-.34.09-.5-.81-.85-.63Zm9.99 14.52c-.29.15-.57.29-.86.44.23.52.57.47.79 1.03.44.58.16-.52.78-.05.24.47.48.95.72 1.42-.28.08-.35.26-.29.5-.72-.3-1.51-.19-2.07-1.43-.08.31-.32.55-.71.72.09-.89-1.2-1.4-.93-2.39-.33-.3-.72-.29-1.14-.12-.92-2.47-1.48-3.89-2.93-6.36-.06.85 1.55 2.24.79 3.17.49.52 1.04.68 1.43 1.77-.36.38-.28 1.16-.92.83-.4-.62.45-.64.21-1.18-.4-.63-.91-.37-.64.33-1.85-2.7-2.61-4.07-3.43-6.82.51.53 1.57.85 1.43 1.77 1.33-.65-.1-1.61-.79-2.1.22-.21.31-1.52.57-1 .65-.39.72 1.4 1.57 2.05.23-1.1-1.76-3.2-1.65-3.81-.42.46-.8 1.14-1.35-.01 1.57-.6 1.13-2.17.49-3.83.3.12.64.06 1-.16.8 3.46 5.46 9.1 7.07 13.53-.36.23-.62-.12-1 .15.56.86 1.32.59 1.86 1.55Zm-4.11-36.49c-.04-1.48.72-2.15 1.85-.59-.2.03-.36-.18-.57-.07 1.79 3.63 2.29 3.87 4.21 6.77-1.64 2.28-4.42-4.59-5.49-6.11Zm11.34 12.4c.78-.04.06-.82-.15-1.35 1.5 1.59 3.01 6.07 5.14 9.15-2.65-1.12-3.09-4.99-4.99-7.8Zm11.7 20.08c-.29-.17-.55-.53-.78-1.03.32-.13.63-.26.5-.61.6-.03 1.09 1.65.28 1.64Zm4.88 21.44c.48-.21.69 1.16 1.06 1.6-.58.29-1.17-1.09-1.06-1.6Zm4.62-.95c.54-.12.79 1.36 1.22 1.88-1.28.51-.51-.87-1.22-1.88Zm2.87 12.11c-.05-1.02 1.1.25 1.35 1.09-.91.82-1.01-1.23-1.35-1.09Zm-218.97-221.82.16.18c0-.26.24-.57-.12-1.11-.05.31-.07.62-.04.93Zm-52.998-200.987c.516.353 1.095.372 1.496 1.377-.572.291-.013 1.135-.637 1.4.087-1.056.064-1.687-.859-2.777Zm19.378 7.555c-.62-.947.407-1.089-.216-2.034.603-.027 1.094 1.651.288 1.641.269.3.566.44.924.236.302 1.256-.55.558-.996.156Z" style="fill-rule:evenodd;fill:#e9d9bb"/><path d="M1524.016 978.321c.635-.304 1.12.237 1.639.585 1.5 4.505-.04-.381-1.639-.585Zm8.406 6.038c-.53.43-.61-1.63-1.14-1.2.01-.23.08-.44.12-.65l.65 1.11.01.01c.08.26.2.51.36.73Zm1.75 25.911c.559.652 1.131 1.815 1.572 3.125-.523-.637-1.392-1.946-1.572-3.125Zm-36.797 64.663c2.126 1.91 2.76 6.677 5.35 7.972-.433.502.348 1.598-.354 1.968-.852-3.095-2.606-3.546-2.784-6.073-1.213-.47-1.727-2.837-2.212-3.866Zm6.423 10.638c.313-.723.252 1.551.928 2.38-.765-.053-1.327-1.253-1.925-2.227.476.21 1.303 1.08.997-.153Zm1.009 10.561c.205.3.296.048.215-.111.833.397 1.327 2.686 2.141 3.19-.106.082-3.675-3.005-2.427-3.756.2.309.207.527.071.677Zm1.576 4.194c-.736-.093-.107 2.005-.14 2.933.599-.407 1.83 2.795 2.998 4.891-1.176-.69-4.425-5.805-3.355-7.21-.63-1.634-.821-1.721-1.359-3.235 1.79 1.553 3.883 5.936 4.783 7.906-.904-.14-2.108-3.912-2.926-5.286Zm4.497 8.411c-.149.425-.046.978-.068 1.464-.335.063-.536-.619-.786-1.027.518.248.785-.13.355-.896.611.548 1.404.098 1.925 1.156-.661.794-.946-.494-1.425-.698Zm3.422 2.53c.947.357.595 1.719 1.357 2.162-.884.158-1.066-1.556-1.357-2.162Zm56.803-15.255c-.588.454-2.49-3.094-1.427-1.768.422.894 1.08.463 1.427 1.768Zm-.853.44c.91.322.987 2.04 1.428 2.841-.777-.257-.551-1.827-1.428-2.841Zm13.383 49.594c-.182-.592-.662-.951-.497-.459-.912-1.406-.473-1.969.923-.833.17.28-.632 1.048.215.963.121.468-.328.027-.641.329Zm4.857 9.656c.268-.07.262.223.142.285.413.219.869.204 1.14 1.198-.584.105-1.438-.641-1.283-1.483Zm146.328 199.656c.638-.323.949 1.201 1.497 1.374.094-.311.066-.683 0-1.071 2.302 1.007 2.689 4.555 4.353 7.053-1.647-.198 1.163 6.521 2.715 6.471.646.813-.256.873-.068 1.464.672.57 1.443.591 2.065 1.439-.299-.122-.638-.057-.996.158.963 1.053-.146 2.334-.068 3.606.765.009 1.047 1.035 1.216 1.879-1.091-.985-.659.63.073 1.746-1.375-1.356-2.368-1.487-3.281-3.316.332-.047.589.326.924.237.183-1.204-.459-2.928-1.213-4.02a.738.738 0 0 1 1.065-.549c-1.123-.529-1.474-3.552-3.065-3.427-.152-.717-.11-1.34-.576-2.209.998-.127.383.89.859 1.706.29.184.606.231.927.239-1.723-3.382-4.113-8.881-6.427-12.781Zm-6.471 6.899c.313-.847-.711-2.348-.219-3.105.546 1.211.725 3.087 1.288 3.628.216.744-.794-.456-1.069-.523Zm21.935-.192c-1.17-1.486-1.419-2.459-2.57-4.04.324-.014.62.138.855.63.097-.24.197-.473.496-.611.134 1.956 1.162 2.986 2.356 4.151-.387-.295-2.106-1.959-1.137-.13Zm2.425 3.756c.285-.809.359 1.278-.425 1.292.037-.335-.095-.76-.36-1.247.233-.306 1.08.841.784-.045Zm4.513 20.2c.504.068.916.644 1.287 1.482.719-.075.349-.683.92-.833.752 1.579 1.689 2.118 2.571 2.969-1.641-.069 2.125 6.237.578 7.566.29.169.552.525.784 1.028-.375.814-.322 1.842.221 3.105-.837 2.142.38 5.506-.491 7.04-.034-.994-1.453-2.397-1.214-1.878-3.093-4.639-4.425-14.68-9.14-17.11.154 1.095 1.915 1.208 2.498 3.368-1.361-1.158-2.429-.89-3.99-2.598-.634.264 1.19 1.725.072 1.75-.615-.281-.288-1.049-.997-1.987 2.047.524-.146-3.413-.792-4.244.426-.211.662.637 1.142.132.66.991.355 2.075 1.286 2.556.833-1.979-1.074-3.538-1.862-5.837 1.255 2.009 4.378 2.942 6.274 4.996.38 1.248 1.119 2.788 2.28 2.402.273.704-.474.91.077 1.75.873.682 1.107-.676 1.852 1.549.334.309.724.294 1.14.13.55-1.238-2.177-3.557-.716-3.564-.201-.691-.613-.193-.857-.632-.567.15.77 1.234-.21 1.182-.689-.319-.813-1.305.067-1.467-.849-1.383-2.001-1.076-2.781-2.857Zm-.543 18.151c-1.96.719-1.585-3.384-2.001-5.049.906 1.801 1.958 3.671 2.001 5.049Z" style="fill-rule:evenodd;fill:#e9d9bb"/></g></g><g><path d="m1307.883 629.259-143.969 138.646-156.38-180.5-222.841-30.589s-21.352 126.585-54.821 249.603c-20.621 75.792-36.801 127.307-54.748 161.298-8.715 16.506-16.331 24.305-27.981 37.514-7.821 8.868-36.293 29.505-36.293 29.505s-9.158 186.101-16.981 288.756c-11.524 151.234-14.623 256.636-14.623 256.636l869.595-.531-2.27-379.43s44.712-74.328 50.811-143.645c11.043-125.504 20.609-397.945 20.609-397.945l-210.107-29.319Z" style="fill:#7584d7"/><path d="M1154.535 860.891a5 5 0 0 1-3.942-1.924L933.404 580.628a5.001 5.001 0 0 1 7.884-6.153l213.753 273.935 218.324-213.105a5 5 0 0 1 6.986 7.156l-222.322 217.008a5.004 5.004 0 0 1-3.493 1.422Z" style="fill:#fff"/><path d="M1319.887 1284.879a4.999 4.999 0 0 1-2.564-9.295l97.578-58.139a4.999 4.999 0 1 1 5.118 8.589l-97.578 58.139a4.966 4.966 0 0 1-2.554.706Zm39.014 58.676a5.001 5.001 0 0 1-4.09-7.871l52.279-74.545a5.001 5.001 0 0 1 8.188 5.742l-52.279 74.545a4.995 4.995 0 0 1-4.098 2.129Z"/><g><path d="M656.76 1033.209c.045 1.481.379 3.261-.812 3.489-.076-1.511-.523-3.405.812-3.489Zm-7.834 81.899c.02-.502.624-.411 1.045-.511.407 1.334-.469 1.361-.557 2.183-1.27-.01.503-1.933-.488-1.672Zm-3.337 8.4c.468.652 1.513 1.229.882 2.068-.358.029-.717.059-1.078.085-.188-.975-.065-1.637.196-2.154Zm5.741 4.237c.417-.393.96 3.033 1.075 4.618-.915-.77-.946-2.76-1.075-4.618Zm-4.407 8.485c.947.561 2.044.917 2.022 2.83-.798-.77-1.765-1.31-2.022-2.83Zm2.963 5.746c.749.057.459 1.556 1.208 1.61.093.359-.11.412-.327.455-.312-.054-.327.194-.325.455-.717-.306-1.114-1.786-.557-2.52Zm2.797 17.732c1.404-.005 1.02 4.236.748 5.07-.567-.635.217-3.844-.748-5.07Zm74.827 313.807 1.079-.089c.928.988.195 2.505.291 3.826-.385-1.349-1.259-2.011-1.37-3.737Zm14.184 15.524c.64.048.871.663.849 1.641-.423-.038-.634.144-.687.481-.851-.037-.352-1.848-.162-2.122Zm1.888 1.127c.608.681-.004 1.561.588 2.945-1.266.354-1.185-1.166-1.271-2.461.42.036.629-.147.683-.484Zm-26.821 22.291c1.955-.313.173 2.839 1.4 4.159 1.639.067.827-2.065.488-3.034 2.784.304-.99 4.501 2.119 4.107-.137 1.034-.365 1.98-.099 3.427-1.268.511-.627-1.633-.912-2.491-1.276 1.692-1.349-1.329-2.837.659.537-2.316.458-4.116-.159-6.827Zm19.877 38.152c1.061 1.115.921.263 2.153-.176.014.767.506.861.488 1.672-.75-.683-2.926.619-2.641-1.497Zm20.742 2.156c.79.705 1.241 2.438-.555 2.187-.365-1.289.922-.896.555-2.187Zm-29.759 21.672c.989.65.382 2.967-.098 3.43-.832-.49.246-2.331.098-3.43Z" style="fill-rule:evenodd;fill:#576cc0"/><path d="M722.892 1487.559c.06.02.14.02.27-.01a.817.817 0 0 0-.27.01Zm35.47 57.99c.04 1.68.11 3.22.26 4.55.08-.54.14-1.03.18-1.48l-.44-3.07Zm-179.01 31.04c-.07 2.34-.11 3.54-.11 3.54h2.2c-.72-1.15-1.4-2.34-2.09-3.54Zm172.61-71.28c-.6 1.39-1.16-1.16-1.57-1.59.46-.85 1.31-3.35.79-3.91-.03.51-.53.51-1.05.51 1.27-1.66.79-3.79.86-5.95l-11.57-80.31c-2.32-.68-2.28-8.46-2.81-10.57.3-.68.68-1.17 1.08-1.39l-.15-1.06c-.29-.31-.36-.92-.5-1.43.1-.01.2 0 .3.02l-62.22-431.91s-5.01 10.535-16.04 23.875c-2.52 21.49 3.86 46.466 3.21 66.826 1.38 5.99 1.95 12.39 2.7 16.46 1.81 2.34 3.05 7.33 2.18 9.66.91 1.13 1.38 6.03 1.68 8.66-.19-.51-.46 1.27-.9 1.54-.36-3.56 0-6.09-1.95-6.68.13-.52.3-1 .62-1.34.1.33.07.84.42.83.3-2.84-2.29.78-2.64-1.5 1.88-.47-.59-2.94 1.96-2.73.28 1.32-.72 1.81.52 2.1-.13-3.82-.91-7.35-1.43-9.29-1.17 1.56.75 4.4.48 6.37-.44.48-1.29.53-1.73 1-.7 2.31.64 4.29-1.01 5.64-1.65-5.73.83-4.71.43-8.56 0 .23-.26.46-.36 0-.51-2.68-.02-3.97-.84-6.34.45-1.01 2.51-4.09-.3-3.83.44 1.64.71 3.68-.75 4.34-.4 3.71 2.54 5.58 1.33 8.01-.27-1.81-.9-3.12-2.08-3.67-.1 1.85 1.57 1.26 1.33 3.31-.52-.06-.66-.65-1.14-.76.83 1.93 1.71 5.54.13 6.4-.91-3.49-1.32-6.65-2.15-9.23.51-.01 1.37-.21.69-.48-.24.02-.48.04-.72.05-1.27 3.94 1.85 5.39-.46 8.17.08-1.93-1.25-3.55-.39-5.1-2.01-.58-2.67-4.74-2.34-7.08-2.13 6.07 2.56 10.32 3.35 15.55-1.27.47-1.51-2.88-2.61-1.07 2.53 5.67-.17 13.88.38 19.21-1.66-4.95-2.54-9.34-2.11-13.52 0-1.33-.96 1.17-1.11-.33 1.04-3.54-.67-10.42-1.92-15.66.53.12.64.45 1.08-.09-2.81-2.37-1.15-7.39-2.22-10.09-.05.34.06.84-.29.88.35-6.37-.27-14.88-2.66-20.74.48-.04.95-.08 1.43-.11-1.87-6.46-4.16-16.08-2.89-23.72-.78.14-1.17-.26-1.17-1.19-.12-4.93-.503-9.639-1.113-14.799-1.2 1.04-2.259 2.05-3.389 3.02-.09.4-.574.869-.704.628-.28.24-.431.376-.702.606 1.04.57.787.435 1.507.215-.24 1.18-.42 2.05.55 2.52l-1.07.09c.38.8 2.01 4.07.35 4.67.3-1.88-1.75-3.54-.45-5.95-2.9.42 1.21 8.34-1.41 9.95-.48-3.86-.773-6.781-.963-10.241-20.003 16.071-26.587 20.541-26.587 20.541s-28.64 470.76-30.4 513.04c.37-.24.83-.27 1.44.05-.31-1.49.14-2.21.88-2.64.58.46 1.1.98 1.57 1.58.72-.44 1.07-1.27 1.66-1.84 1.25 1.82 2.64 6.57.32 8.95.61 1.66 3.87 3.29 1.47 5.02-.15-.58-.88-1.91-1.99-2.41.12 1.69 2.53 3.69.75 5.07-2.61-3.32-4.39-8.79-3.94-13.79-1.76 3.26.28 8.97 2.08 13.09-.7 1.85 0 5.83 1.33 8.02-.17 1-1.11 1.23-1.27 2.24.27 2.37 2.507 6.833 1.917 9.003l38.383-.021c.78-.91 4.94-5.311 6.64-4.261-.18-.96-.04-1.6.58-1.75-.02.97.21 1.59.85 1.64-.47-2.05 1.6-.93 1.73-1 2.69-1.42 4.68-5.09 7.83-6.19 1.47 3.95-1.758 8.113-.958 11.553l9.958-.01c.36-1.69.18-3.593.2-4.602-.05.34-.27.52-.69.48.08-6.62-2.52-15.15 2.69-16.89-.36.64-.31 1.07.45 1.24.46-1.27 1.45-3.54 3.07-2.39-.6-2.13 1.41-3.75 2.67-2.78.48-.18.64-.66 1.41-.54.19-1.39.24-.91-.49-1.67.49-.02.77-.27 1.04-.51.09.66.07 1.47.82 1.21-.53-2.85 1.57-.71 2.38-1.91-.31-1.6-2.31-.86-2.05-3.25.87.92 1.38-.26 2.51-.2-.09.26-.77 1.71.13 1.7-.05-1.1 1.28-.79 1.7-1.42-.04-.75-.18-1.32-.49-1.68 1.42 1.45-.21-2.19 1.69-1.41-.74 2.89.07 5.22.98 8.04-2.34 1.3-1.07 6.25-3.4 7.55-.21-.49-.45-.94-.81-1.22-.21.96-1.18 1.17-1.67 1.85.82 4.59-4.94 5.65-4.96 10.67-.148 3.825 3.21 5.39 3.06 7.02 1.47-.54 2.41.016 3.25.705l54.354-.032c.35-1.23.586-2.514.626-4.144 1.12.83 1.372 2.262 1.532 4.142l4.626-.003c.27-2.91.342-5.789-1.068-8.399 2.01-3.02-1.9-9.43-1.46-14.42.17-1.96-.31-6.58-2.74-7.48-.26-6.03-1.87-12.27-2.59-19.89.89-.57 1.64 1.19 1.4-.54-2.03-2.04-1.26-7.12-2.51-9.2.27 7.22-.04 13.7.51 20.91-.5.14-.55.75-1.01.94.4-4.64-5.38-10.31-2.54-9.63-.49-.4.78-2.33.43-3.89-3.29-.78-.31-4.41-.91-7.19-.94.2-.41-1.63-1.54-1.16-1.07.22-.88 1.73-2.02 1.88-2.69-2.41-1.21-5.34-1.79-9.26.5-.21.57-.57 1.08-.09-.34-1-1.35-3.98.42-3.89.86 2.05-.08.76-.19 2.15 1.36.76 2.03-.22 2.41-1.47.81 1.23 2.66 1 3.1 2.74-.01-.8.13-1.44.59-1.76.83.24.91 1.55 1.92 1.55-.55-1.54-.42-3.54.3-5.58-1.91.17-1.45-2.56-1.34-3.32 1.05.46 1.32 1.65.95 2.92 1.56-.92.61 1.65 1.89 1.13.41-1.73-4.4-6.03-1.36-8.44-.3 3.86 1.77 4.42 2.66 6.63 2.18.43 3.02-.33 3.42-1.56-.33.02-.66.05-1 .08-.22-.88.16-1.15.23-1.74.34.24.68.47.71-.06.91.03-.36.74.09 1.63.46-1.5.3-3.65 1.09-5.14-.76-3.61.88-9.22-.55-11.93-.33 1.36.53 4.22-1.43 4.82-1.85-.75.7-2.58-.95-2.92-.33 1.91.56 2.64-.82 3.49-.04-.56-.65-.33-.78-.79.27-1.59 1.03-3.42 1.97-3.6-.41-.13.94-1.29-.17-1.25-.26.65-1.11.71-1.73 1 .25 2.08-.18 3.48-1.51 3.97-2.11-2.96-.26-5.65-2.76-7.9.76-.43 1.23-3.17.43-3.89.1.76-.29 1.03-1.02.94 1.06-6.3.6-9.85.63-15.45 1.17 1.46.7 2.37 1.4 4.17.52-.91.61-2.27 1.6-2.7.85 1.37 1.57 2.49 2.71 2.35.45 2.32 1.86 3.72 1.2 6.31 1.49-1.03.5-2.94.03-4.28.36-.02.41-.37.69-.48 2.09 1.88 3.58.85 6.49-.1 2.52 8.6-1.21 16.13 1.52 24.68-.12 3.16-1.85 6.58-.95 11.2-.88-.1-.72.84-1.76.57 1.15 3.68.32 7.25-.69 9.89 2.49.2-.52 3.66.75 5.07-.5.21-.57.56-1.08.09 2.51 3.07-1.9 5.6-.36 9.44.12-1.84 2.07 1.41 1.66-1.85-.86-.51-1.27 1.2-1.44.12 2.19-.06 1.48-3.54 3.24-4.97-2.19-2.21-.43-4.75-.62-8.08.67-.38 2.81-1.3 1.63-2.27.31 1.72-1.29-.22-1.83-.28-.21-2.44.76-4.75.92-6.91 1.73.63 1.17.6.91 2.49 1.34-.15.99-.56 2.16-.18.3-1.99-.81-2.01-1.31-2.88 2.43.41.56-4.96 1.67-6.56-.77.15-1.17-.25-1.17-1.18.52.12.64.46 1.07-.09-.68-8.13-2.42-15.47-2.11-22.92-1.38-2.38-2.96-9.55.73-9.47 1.26-9.03-1-18-.67-27.75-2.02-3.07-1.96-7.14-1.5-10.14-.07.44-.89-.83-.48-1.67 1.44-2.99 2.64 1.48 2.84 4.09.06-1.55 2.45.2 3.29.55 1.28 4.68 1.48 8.54 2.76 12.6-.06 1.11-.97 1.37-.88 2.64 1.54 1.68-.41 3.81.09 5.98.29 1.23 1.91 2.01 2.06 3.25.16 1.38-1.25 2.75-1.15 3.94.06.71.79 1.9.91 2.49-.01-.06-.73-.23-.74-.36.09 1.27 1.14 1.81 1.3 2.88.02.2-1.01.41-1.05.52-.49 1.59 1.55 3.32 1.83 4.98-.95 1.31-1.75-1.3-1.76.57 1.23.02 1.16 1.83 1.99 2.41-1.9 1.36.53 4.77-1.47 4.39.87 2.84 2.13 7.85 2.24 10.51.02-.5.53-.51 1.04-.51.21 3.19.32 4.23 1.18 5.89-.37.03-.46-.31-.76-.37.58 4.78 1.13 8.87.92 11.91.5.38 1.13.61 1.52 1.16-.85 1.14-.42 1.38.52 2.09-.6.91-2.06.67-1.3 1.82.9-1.53 1.32 1.58 1.63 2.43-.71.07-.37 1.2-1.37.97-.82.19-.49-1.2-1.17-1.19.31 2.79 1.38 2.69 3.09 2.74.5-1.06.37-2.77.79-3.91-2.11-.63-1.21-5.3-.49-6.38.05.56.66.34.78.8-.41.1-1.02 0-1.04.51 2.4 2.3 1.36 5.05 1.37 8.44 1.34-1.11 1.15.71 2.57.64-.26-3.35-.65-6.72-.74-9.77Zm-162.83 52.19c-.65-1.05-1.88-4.68-.03-5.13-.52 2.05 1.7 4.51.03 5.13Zm-1.52-24.68c.83-1.77.87-4.35 3.26-4.54.6 1.33.7 3.27 1.99 2.4.66 3.16-3.65 4.67-5.25 2.14Zm16.74 44.4c-3.05.65-3.08.44-5.81-.38-.44-1.11-.07-3.35-1.66-2.87.32-.58.23-1.59.56-2.18 1.7-.48 1.61 1.52 2.34 2.38 2.86-.03 3.5-1.75 5.42-.01.28 1.59-.56 2.05-.85 3.06Zm52.2-461.45c1.25.12.71 2 .59 2.95-1.39-.28-.39-1.69-.59-2.95Zm-7.16-18.24c-.36.03-.72.07-1.08.1-.04-.57-.08-1.14-.13-1.7.94-.21 1.22.49 1.21 1.6Zm-7.67-57.96c-2.41-2.57-1.67-9.31-2.05-12.67 2.92 2.65.98 8.51 2.05 12.67Zm-.33 62.04c.21-1.64 1.42-.43 2.48-.63.09 1.24-1.95 1.17-2.48.63Zm2.68 1.92c-1.05-.27-.89.68-1.76.57-.09-1.13.91-1.16 1.3-1.82.42.04.36.76.46 1.25Zm11.21 76.07c1.75-.08 1.61 2.47 1.79 4.56-1.84-.16-1.74-2.93-1.79-4.56Zm2.16-.18c-.85-.07-1.71-.13-1.57-1.58-.87-.1.35 1.92-.98 1.36-.26-2.75.52-4.44.17-7.28-.68 1.01-.85 2.83-.66 5.61-2.37-6.04-2.97-10-2.73-16.88-1.64.17-.98 2.67-2.29 3.18.43-4.57-2.01-7.45-1.52-10.57l.72-.06c.75-.26.73.55.81 1.22 1.01-.84-.38-2.25-1.56-1.58-.13-1.4-.77-2.07-.66-3.8.79 0 .86 1.01.88 2.07 1.43-1.39-.67-4.24-1.56-6.29-.67-1.47 1.2-.36.98-1.36-.84-1.61-1.74-10.73-.61-12.78-.55-1.07-.84-1.28-1.86-.71-.33-1.51-.05-2.41.88-2.64-1.92-1.5-.65-4.22-.13-6.4-.15-1.5-1.11 1-1.1-.34-.1-1.08.22-.54.68-.48-.09-1.59-1.64-1.16-1.33-3.31.92.28 1.96.39 3.26.15-.12-.93-1.54-.05-2.19-.24-.48-1.8.88-1.72.85-3.07-.7.35-1.65-.03-2.21-.67-.67-.74-.82-1.85.51-2.61.4 1.45-.26 1.83-.51 2.61.88-.12 1.04-.89 1.79-.15-1.15-1.97-.31-2.19.03-4.28-.85-.1-2-1.05-3.23.27.44-1.39.61-3.05 1.12-4.37.92-.03.82 1.36.9 2.49.15.74 1.29-.74 1.74-.99-.28-.95-.52.56-1.12-.34.04-1.01.45-1.65.14-3.01.66-.76.46 0 1.44-.11-1.27-2.61-3.65-1.16-3.56-3.99-.43.22-.69.6-.62 1.33-3.38-4.46.39-11.67-2.25-15.21.69-1.4 1.09-.64.2-2.16 1.7-.92 2.44.61 3.28 2.04.03-.47.04-.95.02-1.45 1.16.38.96.12 1.76-.57-.46-1.43-1.98 1.31-2.54-.22.96-.72-.95-3.51.29-5.58-.17-.59-.63.01-.68.48-.96-.62.95-1.63.49-3.03-.31.33-.49.82-.62 1.33-1.1-.19.27-.94-.13-1.7-.35.04-.24.54-.3.88-.96-.08-.48-2.14-1.27-2.46.67-.72 1.62-2.34.14-3.01 1.2-5.69.84-11.81.46-17.57l1.08-.09c-1.67-3.99-1.14-7.78-1.63-11.84 2.9 2.81 1.29 8.12 2.05 12.66.42 2.5 2.02 4.45 1.63 7.14-1.38.5-.44-2.22-1.27-2.46-.46.33.26 1.12-.2 2.15 3.99 4.04 2.08 12.38 2.86 18.59.64 5.08 2.6 9.33 2.44 13.05-.34.31-.29 1.01-1.01.94 1.09 1.39.02 3.21.39 5.11-1.13.67-.94-.42-.59 1.75-.75-.74-.9.03-1.79.15-.34-1.12.68-.88.98-1.36-.61-.57-1.07-1.34-1.93-1.56.18-.86 1.02-1.06 1.31-1.82-.18-.85-1.04-.75-1.21-1.61-1.12.95.18 4-1.4 5.25 1.69 2.64 4.56 2.32 5.15 5.99.85-.31.67-1.67.88-2.63 2 3.01.11 6.31 2.08 8.38-.31.59-.22 1.61-.94 1.79.32 1.18 1.97 3.68.68 4.22.1.8 1.21.2 1.17 1.19-2.11 3.01 1.62 8.5.16 11.53 1.77 1.97 1.82 7.07 1.4 8.87 2.91 2.04 2.37 9.97 1 13.17.41 3.27 1.31 2.86 1.53 5.87.03-.92 1.13-2.74.49-3.03 1.33-.04 1.28 2 1.47 5.01 0-.07-.43-.4-.43-.8-.27 4.36 4.4 12.69.29 17.91-.08-1.76-.35-3.27-1.04-4.19.65.95-.69 5.89 1.56 6.29.27 1.32-.32 1.77-.91 2.21Zm1.62 7.14c-.31-.35-.46-.92-.49-1.67 1.8-.1.55 6.68.49 1.67Zm.63-24.86c-.02-3.1-.99-4.88-1.3-7.59 1.78 3.33 1.94 5.03 2.84 8.75-.71-.11-.18-1.94-1.54-1.16Zm9.22 409.83c-.51-.24-.74-.85-.85-1.64.62.1.65-.39.65-.92.81.12.45 2.24.2 2.56Zm50.92.12c1.32-.4 1.11 3.15-.17 2.58-.83-.81-.03-1.69.17-2.58Zm-7.55-37.45c1.11-.28 1.21.82 1.24 2.04-.65 0-.72.58-1.4.54-.13-1.04-.22-2.04.16-2.58Zm5.18-112.04c1.68.71.34 3.61.38 5.1-1.9-.37.12-3.86-1.07-4.62.08-.68.66.32.69-.48Zm-.37 4.73c.06.71.11 1.42.17 2.13-.34-.24-.68-.46-.72.05-.52-.05-.22-1.25-.82-1.21.04-.76.55-1.02 1.37-.97Zm3.64 28.79c-.81-.75-1.98-1.01-2.02-2.83-.29.35-.77.52-1.4.54.64-1.05-.85-2.34.1-3.43-.28-.55-.83-.73-1.5-.73.16-3.54.21-5.58-.36-9.38-.59 1.02.84 3.57-.74 4.34.37.89 1.03 1.37.94 2.91-.73.3-1.07 1.31-1.76.58-.19-.98 1-.57.98-1.37-.19-.98-1.05-.91-1.08.09-.98-4.28-1.24-6.37-.78-10.2.4.92 1.68 1.84.95 2.91 2.22-.14.79-2.05.13-3 .43-.15 1.31-1.73 1.37-.97 1.13-.15.18 2.11.98 3.34.95-1.24-.58-4.85-.07-5.55-.85.35-1.78 1.01-1.86-.7 2.51.05 2.82-2.13 2.91-4.52.34.31.84.39 1.47.31-.9 4.7 2.26 14.06 1.91 20.37-.64.11-.79-.46-1.47-.3.28 1.34 1.48 1.38 1.67 2.85l-1.44.12c.01.77.51.86.49 1.67.27.95.52-.56 1.11.34.05.71.11 1.42.16 2.12-.42-.03-.63.15-.69.49Zm4.71-66.25c.5 0 1.01-.01 1.04-.51 1.94 4.64 1.43 12.2 1.65 16.97.44 1.04 1.57-.47 1.34-1.39 1.04.35.04 1.81.2 2.55-.65.1-.8-.46-1.47-.31-.79.25.01 2.11-.14 3-3.92-5.5-1.68-11.58-2.62-20.31Zm4.97 36.8c-.8-.84.82-1.46.49-3.03-.35.04-.24.55-.3.88-.52-.05-.22-1.26-.81-1.22-.79.52.06 2.69-.07 3.86-1.81-1.66-1.63-6.05-2.74-7.47.72-.72 1.93-.46 2.16-.18 1.18-.48-.03-.96.59-1.76-.56-1.15-.64 1.4-1.74 1-.27-3.28.14-4.04-1.13-5.47.43-1.4.59.02.16-2.58 2.48-.42.72 2.68 1.72 3.71 1.41-1.55-1.76-5.42.66-5.61.02 5.33 3.18 11.8 1.01 17.87Zm13.47 58.35c.79-.01.29 1.79.55 2.52-.98.08-1-1.93-.55-2.52Zm5.11 19.69c-1.73.55-.68-2.05-1.24-2.04.53-1.3 1.38.86 1.24 2.04Zm-24.64-.64-.03.09c.02-.01.05-.01.07-.01a.3.3 0 0 1-.04-.08Z" style="fill-rule:evenodd;fill:#576cc0"/><path d="M661.602 1073.017c-1.077.27-1.644-5.1-.946-2.916.064 1.324 1.224 1.118.946 2.916Zm-1.435.118c1.071.857.18 3.034.324 4.252-.926-.71.3-2.549-.324-4.252Zm-10.314 68.414c.092-.828-.363-1.515-.42-.82-.444-2.207.49-2.686 1.76-.573.073.433-1.482.986-.263 1.306-.105.643-.469-.131-1.078.087Zm1.104 14.452c.411.047.233.409.031.426.444.479 1.083.689.88 2.063-.869-.163-1.615-1.52-.911-2.489Zm86.273 321.854c1.069-.081.615 1.971 1.271 2.461.31-.34.487-.816.621-1.332 2.597 2.408 1.07 7.017 1.92 10.961-2.162-1.073-2.18 8.695-.007 9.413.421 1.336-.861.958-.944 1.787.599 1.046 1.651 1.46 2.019 2.827-.342-.302-.848-.391-1.469-.303.719 1.793-1.558 2.831-2.19 4.452 1.052.396.845 1.813.59 2.949-.937-1.773-1.276.452-.913 2.209-1.113-2.377-2.409-3.039-2.608-5.773.485.109.624.701 1.14.759.952-1.405 1.066-3.873.659-5.61a1.188 1.188 0 0 1 1.792-.148c-1.245-1.221.026-5.158-2.246-5.802.206-.969.627-1.722.487-3.038 1.454.343.012 1.3.196 2.553.294.374.704.592 1.143.762-.417-5.073-.526-13.113-1.459-19.127Zm-12.953 5.332c.924-.896.38-3.278 1.502-3.972.051 1.78-.792 4.204-.328 5.16-.133 1.034-.833-.966-1.174-1.188Zm-9.315 34.117c.032-.485.345-.265.359-.03.342-.307.295-1.006 1.014-.936-.102 1.338-.932 1.936-1.213 3.094-.961 1.263.652-2.362-.161-2.128Zm8.902 3.123c.724.563 1.665.823 1.633 2.438-1.936-1.491.751 2.417-.07 3.849.127.381 1.676 1.003 1.47.311-.453 1.892.137 8.434-1.314 11.225 2.386.731-.561 3.124 1.732 3.709.001.787-1.197.361-1.376.969 1.399 1.956-.384 4.314.096 5.976-.084.645-2.919-.32-1.339 1.395-1.432.817-.964-2.254.524-2.609-.354-1.841-.096-3.015.362-4.733-.145-.742-.692-.919-1.498-.736.07-2.473.774-2.673-.358-4.677 3.866.556-.383-5.878 2.253-8.307-1.531-2.058-1.075-5.383-2.116-8.811Zm26.517 6.824c.657.337.893 1.261.917 2.49 1.037.268.879-.675 1.756-.573.123 2.342 1.105 3.483 1.829 4.984-2.228-.909-.687 8.826-3.596 9.702.303.356.458.931.487 1.673-.991.824-1.515 2.129-1.499 3.974-2.401 2.244-2.673 7.041-4.769 8.511.53-1.254-.616-3.712-.586-2.946-1.58-7.325 2.411-20.483-2.693-25.874-.424 1.44 1.945 2.466 1.496 5.445-1.208-2.124-2.84-2.327-4.005-5.236-1.03.01.642 2.744-.917 2.213-.687-.659.211-1.449-.224-2.972 2.525 1.68 1.781-4.318 1.371-5.677.712-.049.545 1.125 1.501.738.336 1.564-.715 2.76.293 3.826 2.302-2.043.57-4.941.817-8.196.567 3.129 4.343 5.859 5.77 9.365-.2 1.743-.073 4.03 1.756 4.134-.031 1.013-1.184.895-.911 2.216.811 1.287 1.922-.285 1.66 2.857.281.552.83.73 1.501.734 1.479-1.263-.943-5.518 1.08-4.793.124-.96-.735-.548-.818-1.217-.871-.098.347 1.921-.977 1.365-.768-.742-.366-2.031.945-1.791-.37-2.147-2.141-2.343-2.183-4.951Zm-28.994-1.49c.806 0-.386 1.111.161 2.126-1.092.566-.932.278-1.828-.277.702-.507 1.676.072 1.668-1.849Z" style="fill-rule:evenodd;fill:#576cc0"/><path d="M723.462 1543.558c-.021 1.639.198 3.563-.295 5.58-.02-.429-.994-5.169.295-5.58Zm15.622 5.998c-3.128-.09-.225-5.005.167-7.286.207 2.695.575 5.55-.167 7.286Zm-83.775 14.098c.275 1.712-1.427 1.432-1.596 2.697-.492.928.106-3.094 1.596-2.697Z" style="fill-rule:evenodd;fill:#576cc0"/></g></g><g><g><path d="m1309.451 1677.819 304.472-9.365-19.661-230.034-270.409 50.195-14.403 189.204Z" style="fill:#ffc197"/><path d="M1557.677 1470.251s-117.157 5.939-263.884 12.054c-143.811 5.992-253.324 49.277-285.835 70.626-11.09 7.284-15.294 21.413-10.09 33.621 5.273 12.371 18.729 19.115 31.769 15.846 21.896-5.489 57.696-15.18 98.795-29.094 68.013-23.026 133.748 18.402 199.34 29.731 65.592 11.329 166.2-20.55 166.2-20.55l73.153-84.565-9.448-27.668Z" style="fill:#ffc197"/><g><g><path d="M1395.785 1662.294s-22.067 17.44-54.899 23.039c-53.159 9.067-130.514 20.548-171.063 13.545-65.592-11.329-129.319-46.016-197.332-22.99-41.099 13.914-76.899 23.605-98.795 29.094-13.04 3.27-26.496-3.475-31.769-15.846-5.204-12.208-.999-26.338 10.09-33.621 32.511-21.349 103.295-60.656 180.533-58.082 105.687 3.521 247.557-10.543 247.557-10.543l131.078 13.616-15.4 61.787Z" style="fill:#ffc197"/><path d="M1302.426 1659.715s-100.608 31.879-166.2 20.551c-65.592-11.329-131.327-52.758-199.34-29.732-41.099 13.914-76.899 23.605-98.795 29.094-13.04 3.27-26.496-3.475-31.769-15.846-5.204-12.208-.999-26.338 10.09-33.621 32.511-21.349 140.754-76.853 249.904-64.547 145.93 16.452 178.185-4.077 178.185-4.077l131.078 13.616-73.153 84.563Z" style="fill:#ffc197"/><path d="M1267.731 1635.515s-100.608 31.879-166.2 20.551c-65.592-11.329-131.327-52.758-199.34-29.732-41.099 13.914-76.899 23.605-98.795 29.094-13.04 3.27-26.496-3.475-31.769-15.846-5.204-12.208-.999-26.338 10.09-33.621 32.511-21.349 140.754-76.853 249.904-64.547 145.93 16.452 178.187-4.077 178.187-4.077l131.078 13.616-73.155 84.563Z" style="fill:#ffc197"/><path d="M1311.874 1599.133s-100.608 31.879-166.2 20.551c-65.592-11.329-131.327-52.758-199.34-29.732-41.099 13.914-76.899 23.605-98.795 29.094-13.04 3.27-26.496-3.475-31.769-15.846-5.204-12.208-.999-26.338 10.09-33.621 32.511-21.349 147.084-64.864 290.895-70.856 146.727-6.115 246.081-19.37 246.081-19.37l22.192 35.216-73.153 84.565Z" style="fill:#ffc197"/></g><g><ellipse cx="860.049" cy="1663.688" rx="22.272" ry="10.696" transform="translate(-684.337 604.249) rotate(-28.213)" style="fill:#e59673"/><ellipse cx="825.189" cy="1631.8" rx="25.876" ry="12.426" transform="translate(-673.404 583.98) rotate(-28.213)" style="fill:#e59673"/><ellipse cx="798.557" cy="1608.787" rx="29.954" ry="12.426" transform="translate(-665.656 568.609) rotate(-28.211)" style="fill:#e59673"/></g><g style="clip-path:url(#clippath)"><g><path d="M841.927 1693.366c-1.642 0-7.245-1.242-7.93-2.848-6.013-14.104 2.931-30.15 15.699-38.536 30.886-20.282 88.331-58.001 189.67-58.001h.503a4.228 4.228 0 0 1-.004 8.454c-.188.002-.336 0-.494 0-98.827 0-154.888 36.817-185.037 56.615-9.345 6.138-18.962 21.29-14.555 31.626.915 2.147 2.703 2.691 2.149 2.691Z"/><path d="M801.475 1663.932a4.229 4.229 0 0 1-3.902-2.602c-5.861-14.074-1.067-30.375 11.4-38.755 38.652-25.985 128.912-69.905 222.278-69.905h.374a4.228 4.228 0 0 1-.004 8.454c-.123.025-.26 0-.38 0-114.396 0-213.39 65.67-217.552 68.47-9.133 6.138-9.582 18.624-9.582 28.906.898 2.158 1.146 4.21-1.007 5.108a4.295 4.295 0 0 1-1.625.323Zm11.75-76.348c-1.375 0-2.393-.277-3.204-1.513a4.23 4.23 0 0 1 1.213-5.855c41.304-27.122 117.455-56.061 207.415-56.061h.516a4.228 4.228 0 0 1-.004 8.454c-.19-.027-.342 0-.511 0-88.105 0-162.822 27.83-203.108 54.281a4.215 4.215 0 0 1-2.316.693Z"/></g></g></g></g><g><path d="M1387.499 1476.192v199.519l171.932-3.857-91.328-210.017-80.604 14.355z"/><path d="M2135.037 1391.923 1763 1419.776l-240.518 29.848 79.428 237.66 393.72-18.033c65.708-3.752 132.896-46.69 158.773-107.23 23.791-55.66 14.834-118.084-19.366-170.098Z" style="fill:#f3ead9"/><path data-name=" " d="M2048.962 1354.065c70.262 18.21 129.19 91.145 115.713 162.468-15.333 81.159-88.939 141.578-171.273 148.318l-581.085 34.028-16.344-240.229 511.996-66.697s81.299-53.358 140.993-37.887Z" style="fill:#f3ead9"/><g><path d="M1760.139 1416.211a5 5 0 0 1-.688-9.953l137.553-19.287a4.995 4.995 0 0 1 5.646 4.257 5 5 0 0 1-4.257 5.646l-137.553 19.287c-.235.033-.47.05-.701.05Zm33.011-26.822a5 5 0 0 1-2.531-9.316l83.527-48.906a5 5 0 1 1 5.052 8.629l-83.527 48.906a4.978 4.978 0 0 1-2.521.687Z"/></g></g></g><g><g><path d="m847.858 1138.395-276.175-3.827-35.967 234.679 296.666-29.933 15.476-200.919Z" style="fill:#ffc197"/><g><path d="m960.444 875.19 38.337-18.443c3.651-1.757 7.788-.721 9.243 2.315l222.972 465.479c.274.57.439 1.19.489 1.835l3.36 43.224c.847 10.89-14.779 18.408-22.73 10.935l-31.552-29.662a5.14 5.14 0 0 1-1.124-1.53L956.466 883.866c-1.453-3.035.328-6.919 3.978-8.675Z"/><path d="m967.684 907.322 51.555-24.801 13.493 28.169-51.555 24.801-13.493-28.169Z" style="fill:#fdc93a"/></g><g><g><path d="M827.813 1339.775s105.176-3.326 147.938-144.477c40.592-133.988 119.667-153.791 119.667-153.791s15.574 69.293 29.564 107.784a593.21 593.21 0 0 1 6.749 19.556c4.348 13.401 18.774 20.659 32.112 16.212 14.909-4.971 23.466-20.625 19.627-35.897l-35.973-143.101c-12.145-48.31-67.696-70.753-109.869-44.403-89.394 55.856-219.11 148.224-239.735 224.967-8.949 33.293 29.081 149.372 29.081 149.372l.838 3.778Z" style="fill:#ffc197"/><ellipse cx="1170.775" cy="1147.004" rx="12.555" ry="27.705" transform="translate(-200.556 249.349) rotate(-11.204)" style="fill:#e59673"/></g><path d="M985.022 1135.492s-23.903 163.574-146.479 172.876c-122.577 9.304 1.578-116.481 1.578-116.481l111.42-100.41 33.482 44.016Z" style="fill:#ffc197"/><g><path d="M818.193 1267.973a4.378 4.378 0 0 1-2.322-4.219 4.366 4.366 0 0 1 4.694-4.015c60.486 4.803 95.442-56.561 95.787-57.182a4.361 4.361 0 0 1 5.938-1.685 4.378 4.378 0 0 1 1.687 5.947c-1.519 2.733-37.963 66.893-104.1 61.643a4.445 4.445 0 0 1-1.684-.489Z"/><g><path d="m893.819 1073.247 92.4-58.584c26.177-16.597 57.245-19.413 83.465-7.566 24.687 11.155 38.662 38.359 34.809 67.757l-20.094 153.392c-2.543 19.404-20.027 33.744-37.876 31.062-18.828-2.829-32.093-19.508-31.781-39.962l1.44-94.723-122.362-51.377Z" style="fill:#ffc197"/><ellipse cx="1071.997" cy="1221.739" rx="30.576" ry="11.978" transform="translate(-296.472 2098.732) rotate(-81.389)" style="fill:#e59673"/><path d="M1033.06 1259.442c-13.917-7.333-22.948-22.559-22.681-40.163l1.441-94.725a4.368 4.368 0 0 1 4.43-4.307c2.41.035 4.332 2.026 4.298 4.442l-1.441 94.725c-.276 18.128 11.531 33.087 28.063 35.569 6.968 1.048 14.17-.918 20.279-5.531 6.89-5.203 11.492-13.139 12.622-21.775l20.094-153.392c3.596-27.451-9.366-52.875-32.276-63.198-25.439-11.497-71.953.699-115.738 30.35a4.361 4.361 0 0 1-6.06-1.177 4.38 4.38 0 0 1 1.172-6.074c46.921-31.775 95.678-43.972 124.211-31.077 26.452 11.932 41.447 41.008 37.345 72.316l-20.094 153.392c-1.433 10.948-7.274 21.018-16.024 27.623-7.996 6.039-17.524 8.594-26.826 7.197a40.263 40.263 0 0 1-12.818-4.195Z"/></g><g><path d="m913.668 1085.866 56.831-56.968c23.258-16.526 63.644-7.452 83.95 9.529 20.1 16.809 26.851 46.247 16.816 73.324l-52.358 141.283c-6.623 17.872-25.789 27.18-41.513 20.162-16.589-7.405-25.02-26.626-20.204-46.058l22.304-89.985-65.826-51.287Z" style="fill:#ffc197"/><ellipse cx="1011.995" cy="1239.427" rx="30.565" ry="11.981" transform="translate(-510.295 1732.324) rotate(-68.71)" style="fill:#e59673"/><path d="M973.352 1276.09c-16.94-8.926-25.479-29.517-20.401-50.009l22.304-89.985a4.361 4.361 0 0 1 5.287-3.189c2.342.579 3.765 2.958 3.183 5.3l-22.304 89.985c-4.277 17.262 3.198 34.512 17.743 41.008 5.938 2.65 12.738 2.622 19.147-.079 7.513-3.165 13.527-9.586 16.502-17.611l52.357-141.281c9.384-25.325 3.147-52.83-15.519-68.443-32.896-27.502-92.666-8.263-115.49 9.764a4.353 4.353 0 0 1-6.129-.729 4.38 4.38 0 0 1 .726-6.143c43.963-34.724 103.295-29.005 126.484-9.61 21.504 17.983 28.782 49.414 18.112 78.208l-52.357 141.281c-3.811 10.283-11.572 18.531-21.298 22.63-8.653 3.647-17.916 3.648-26.08.004a37.605 37.605 0 0 1-2.266-1.1Z"/></g><g><path d="m870.298 1089.094 67.81-48.188c23.252-16.525 52.636-16.218 72.939.759 20.095 16.806 26.844 46.236 16.812 73.308l-52.345 141.25c-6.621 17.868-25.783 27.173-41.503 20.157-16.585-7.403-25.015-26.621-20.199-46.048l22.299-89.966-65.812-51.272Z" style="fill:#ffc197"/><ellipse cx="966.475" cy="1248.165" rx="27.009" ry="11.981" transform="translate(-547.378 1695.646) rotate(-68.716)" style="fill:#e59673"/><path d="M929.964 1279.273c-16.934-8.923-25.47-29.51-20.392-49.997l22.299-89.966a4.361 4.361 0 0 1 5.287-3.189 4.369 4.369 0 0 1 3.183 5.3l-22.299 89.966c-4.275 17.258 3.175 34.508 17.74 40.996 5.936 2.649 12.735 2.623 19.141-.077 7.51-3.164 13.523-9.583 16.498-17.608l52.345-141.25c9.382-25.321 3.147-52.817-15.517-68.424-23.91-20-65.866-4.26-96.835 20.207a4.355 4.355 0 0 1-6.129-.729 4.38 4.38 0 0 1 .726-6.143c41.175-32.529 83.502-40.401 107.831-20.052 21.501 17.979 28.777 49.402 18.108 78.191l-52.345 141.25c-3.81 10.281-11.571 18.529-21.296 22.626-8.653 3.647-17.913 3.647-26.075.004a38.65 38.65 0 0 1-2.269-1.104Z"/></g></g></g></g><g><path d="m735.286 1136.416-43.499 217.194 105.797-10.785-14.258-205.324-48.04-1.085z"/><path data-name=" " d="M107.657 1080.373c-68.364 24.386-120.572 102.273-100.806 172.115 22.49 79.474 101.177 133.107 183.784 132.498l581.809-17.785-5.085-240.73-515.899-20.9s-85.722-45.916-143.803-25.198Z" style="fill:#f3ead9"/></g><g><path d="M516.999 1119.598c-.057 0-.114 0-.171-.003l-254.263-8.57a5 5 0 0 1-4.829-5.165c.093-2.761 2.375-4.902 5.166-4.829l254.263 8.57a5 5 0 0 1-.165 9.997Zm-181.325-22.307a4.979 4.979 0 0 1-2.452-.646l-68.424-38.587a5.001 5.001 0 0 1 4.912-8.711l68.424 38.587a5.001 5.001 0 0 1-2.46 9.357Z"/></g></g></g></svg></g><g transform="translate(114.0 2237.0) rotate(0.0 1888.5 384.5) scale(1.0643259198726303 1.0650822010775474)"><svg width="3548.725" height="722.01" viewBox="0 0 3548.725 722.01"><path d="M623.842 575.695 10 10h2914.689l614.036 565.695z" fill="#fff"/><path d="M3538.725 585.696H623.842c-2.511 0-4.931-.945-6.777-2.646L3.223 17.354A10 10 0 0 1 10 0h2914.689c2.511 0 4.929.944 6.775 2.646L3545.5 568.341a9.999 9.999 0 0 1-6.775 17.354zm-2910.978-20h2885.365L2920.785 20H35.607l592.141 545.696z" fill="#e9d9bb"/><path d="M623.842 712.01V575.695h2914.883V712.01z" fill="#fff"/><g fill="#e9d9bb"><path d="M3538.725 722.01H623.842c-5.523 0-10-4.478-10-10V575.696c0-5.522 4.477-10 10-10h2914.883c5.523 0 10 4.478 10 10V712.01c0 5.522-4.477 10-10 10zm-2904.883-20h2894.883V585.696H633.842z"/><path d="M10 146.244 623.842 712.01V575.695L10 10z"/><path d="M623.844 722.01a10 10 0 0 1-6.779-2.646L3.223 153.598A10 10 0 0 1 0 146.244V10a10.001 10.001 0 0 1 16.777-7.353l613.842 565.695a10.003 10.003 0 0 1 3.223 7.354V712.01a10 10 0 0 1-9.998 10zM20 141.862l593.842 547.332V580.079L20 32.815z"/></g></svg></g><g transform="translate(2686.0 493.0) rotate(0.0 287.5 287.5) scale(1.065426448516741 1.065426448516741)"><svg width="539.69" height="539.69" viewBox="0 0 539.69 539.69"><circle cx="269.845" cy="269.845" fill="#fff" r="264.845"/><path d="M269.845 539.69c-72.078 0-139.842-28.069-190.809-79.036C28.069 409.687 0 341.923 0 269.845S28.069 130.003 79.036 79.036 197.767 0 269.845 0s139.842 28.069 190.81 79.036c50.967 50.967 79.036 118.731 79.036 190.809s-28.069 139.842-79.036 190.809-118.731 79.036-190.81 79.036zm0-529.689C126.566 10 10 126.566 10 269.845S126.566 529.69 269.845 529.69 529.69 413.124 529.69 269.845 413.124 10 269.845 10z" fill="#f3ead9"/><circle cx="269.845" cy="269.347" fill="#fff" r="216.51"/><path d="M269.845 490.857c-59.167 0-114.793-23.041-156.631-64.878-41.837-41.838-64.878-97.464-64.878-156.631s23.041-114.793 64.878-156.631c41.838-41.837 97.464-64.878 156.631-64.878s114.793 23.041 156.631 64.878c41.838 41.838 64.879 97.464 64.879 156.631s-23.041 114.793-64.879 156.631c-41.838 41.837-97.464 64.878-156.631 64.878zm0-433.02c-116.627 0-211.51 94.883-211.51 211.51s94.883 211.51 211.51 211.51 211.51-94.883 211.51-211.51-94.883-211.51-211.51-211.51z" fill="#f3ead9"/><path d="M280.763 303.254a4.982 4.982 0 0 1-2.194-.51l-142.544-69.76a5 5 0 0 1 4.396-8.982l142.544 69.76a5 5 0 0 1-2.202 9.492z" fill="#fdc93a"/><path d="M283.016 303.752a5.002 5.002 0 0 1-4.782-3.548l-54.01-177.802a5 5 0 1 1 9.568-2.906l54.01 177.802a4.999 4.999 0 0 1-4.786 6.454z" fill="#fcae1d"/></svg></g><g transform="translate(1026.0 2340.0) rotate(0.0 602.5 201.5) scale(1.0656332824246564 1.0651682067113526)"><svg width="1130.783" height="378.344" viewBox="0 0 1130.783 378.344"><path d="M492.156 378.344h638.626L787.806 62.565l-635.258 3.101z" fill="#e9d9bb"/><path d="M336.3 316.426h615.799L612.259 5 5 8.635z" fill="#fff"/><path d="M952.099 321.426H336.3a5 5 0 0 1-3.403-1.337L1.597 12.298A5 5 0 0 1 4.97 3.635L612.23 0h.03c1.25 0 2.456.469 3.378 1.313l339.839 311.426a5 5 0 0 1-3.378 8.687zm-613.834-10h600.977L610.328 10.012 17.646 13.56z" fill="#f3ead9"/><path d="M794.338 227.946h-.043l-61.514-.529c-2.691 0-5.35-.969-7.443-2.728-.057-.048-.113-.098-.168-.147l-35.872-32.99a5.002 5.002 0 0 1 3.341-8.681l60.498-.529c2.833.027 5.496 1.013 7.593 2.775.059.05.117.101.174.153l36.826 34.002a5.001 5.001 0 0 1-3.391 8.674zm-62.509-10.866c.285.218.635.337.995.337l48.607.418-27.199-25.113a1.846 1.846 0 0 0-1.101-.38l-47.746.418zM571.812 74.583l32.685 29.248a8.628 8.628 0 0 0 5.754 2.199h59.186c1.862 0 2.714-2.321 1.294-3.525l-34.458-29.232a9.437 9.437 0 0 0-6.113-2.24l-57.017.059c-1.835.002-2.699 2.267-1.332 3.49z" fill="#f36a8d"/><g fill="#231f20"><path d="M322.703 232.333a5 5 0 0 1-.035-10l353.637-2.54h.037a5 5 0 0 1 .035 10l-353.637 2.54zm321.858-32.052H454.848a5 5 0 1 1 0-10h189.713a5 5 0 1 1 0 10zm-238.195 0H290.007a5 5 0 1 1 0-10h116.359a5 5 0 1 1 0 10zm148.257-100.98h-188.12a5 5 0 1 1 0-10h188.12a5 5 0 1 1 0 10zm-237.354 0H179.417a5 5 0 1 1 0-10h137.852a5 5 0 1 1 0 10zm203.372-31.807H145.55a5 5 0 1 1 0-10h375.091a5 5 0 1 1 0 10z"/></g></svg></g><g transform="translate(2481.0 2458.0) rotate(0.0 257.0 153.5) scale(1.0649869984563904 1.064220692332758)"><svg width="482.635" height="288.474" viewBox="0 0 482.635 288.474"><path d="m481.35 280.852-39.026-42.399L21.66 0 0 38.211l420.663 238.453 56.424 11.707c4.32.896 7.25-4.273 4.262-7.519z" fill="#f3ead9"/><path d="M21.66 0 0 38.211l420.664 238.453s-1.068-9.779 5.011-20.458c7.268-12.766 16.649-17.754 16.649-17.754z" fill="#d2e23d"/><path d="m446.423 282.009 13.717-24.199 21.297 23.138c2.935 3.188.062 8.267-4.182 7.395l-30.833-6.333z" fill="#c0d625"/></svg></g><g transform="translate(2466.0 2330.0) rotate(0.0 376.5 186.5) scale(1.096845803581573 1.0956248439542364)"><svg width="686.514" height="340.445" viewBox="0 0 686.514 340.445"><clipPath id="a"><path d="M684.029 274.802 83.149.384a4.25 4.25 0 0 0-4.155.351L1.862 53.15c-2.728 1.854-2.397 5.972.591 7.367l598.773 279.529c1.4.654 3.045.496 4.295-.412l79.239-57.526c2.634-1.912 2.229-5.954-.731-7.306z"/></clipPath><path d="M684.029 274.802 83.149.384a4.25 4.25 0 0 0-4.155.351L1.862 53.15c-2.728 1.854-2.397 5.972.591 7.367l598.773 279.529c1.4.654 3.045.496 4.295-.412l79.239-57.526c2.634-1.912 2.229-5.954-.731-7.306z" fill="#fdc93a"/><path d="M602.394 303.558c7.308 3.444 18.65 2.372 25.32-2.395 6.664-4.762 6.126-11.401-1.188-14.827-7.304-3.421-18.608-2.347-25.266 2.398-6.664 4.749-6.163 11.385 1.134 14.824z" fill="#fff"/><g clip-path="url(#a)"><path d="M71.48 62.746a5 5 0 0 1-2.825-9.129l55.116-37.654a5 5 0 0 1 5.641 8.257L74.297 61.875a4.982 4.982 0 0 1-2.816.872zm98.388 45.415a5 5 0 0 1-2.846-9.115l55.322-38.2a4.999 4.999 0 1 1 5.682 8.228l-55.322 38.2a4.975 4.975 0 0 1-2.836.886zm87.998 40.555a5 5 0 0 1-2.864-9.102l55.501-38.69a5 5 0 1 1 5.719 8.203l-55.501 38.69a4.979 4.979 0 0 1-2.855.899zm101.859 47.464a5 5 0 0 1-2.885-9.088l55.705-39.265a5 5 0 0 1 5.762 8.174l-55.705 39.265a4.977 4.977 0 0 1-2.876.914zm104.331 48.228a5 5 0 0 1-2.907-9.072l55.902-39.854a5 5 0 1 1 5.805 8.143l-55.902 39.854a4.98 4.98 0 0 1-2.898.929zm106.518 49.274a5 5 0 0 1-2.93-9.056l56.096-40.459a5 5 0 1 1 5.85 8.11l-56.096 40.459a4.975 4.975 0 0 1-2.92.945z"/></g></svg></g><g transform="translate(1483.0 2097.0) rotate(0.0 745.5 187.5) scale(1.0662635222738945 1.0644035082739634)"><svg width="1398.341" height="352.31" viewBox="0 0 1398.341 352.31"><clipPath id="b"><path d="M861.545 314.96 841.884 84.926l-211.733 39.303c-32.315 1.45-68.061 3.01-105.769 4.582-43.36 1.806-365.418 16.025-467.933 87.274-6.388 4.44-10.615 10.9-11.874 18.111-13.972 7.035-25.012 13.504-32.269 18.27-11.09 7.283-15.294 21.413-10.091 33.621 5.273 12.371 18.729 19.115 31.77 15.846l.826-.208a27.523 27.523 0 0 0 2.1 8.563c5.273 12.371 18.729 19.115 31.769 15.846.541-.135 1.097-.276 1.654-.416a27.502 27.502 0 0 0 2.183 9.925c5.273 12.371 18.729 19.115 31.769 15.846 21.896-5.489 57.696-15.18 98.795-29.094 68.013-23.026 131.74 11.661 197.332 22.99 40.549 7.003 117.904-4.478 171.063-13.545 11.383-1.942 21.468-5.307 29.792-8.874z"/></clipPath><g fill="#ffc197"><path d="m540.041 324.325 304.472-9.365-19.661-230.034-270.409 50.195-14.403 189.204z"/><path d="M788.267 116.757s-117.157 5.939-263.884 12.054c-143.811 5.992-253.324 49.277-285.835 70.626-11.09 7.284-15.294 21.413-10.09 33.621 5.273 12.371 18.729 19.115 31.769 15.846 21.896-5.489 57.696-15.18 98.795-29.094 68.013-23.026 133.748 18.402 199.34 29.731s166.2-20.55 166.2-20.55l73.153-84.565-9.448-27.668z"/><path d="M626.374 308.801s-22.067 17.44-54.899 23.039c-53.159 9.067-130.514 20.548-171.063 13.545-65.592-11.329-129.319-46.016-197.332-22.99-41.099 13.914-76.899 23.605-98.795 29.094-13.04 3.27-26.496-3.475-31.769-15.846-5.204-12.208-.999-26.338 10.09-33.621 32.511-21.349 103.295-60.656 180.533-58.082 105.687 3.521 247.557-10.543 247.557-10.543l131.078 13.616-15.4 61.787z"/><path d="M533.015 306.222s-100.608 31.879-166.2 20.551c-65.592-11.329-131.327-52.758-199.34-29.732-41.099 13.914-76.899 23.605-98.795 29.094-13.04 3.27-26.496-3.475-31.769-15.846-5.204-12.208-.999-26.338 10.09-33.621 32.511-21.349 140.754-76.853 249.904-64.547 145.93 16.452 178.185-4.077 178.185-4.077l131.078 13.616-73.153 84.563z"/><path d="M498.32 282.021s-100.608 31.879-166.2 20.551c-65.592-11.329-131.327-52.758-199.34-29.732-41.099 13.914-76.899 23.605-98.795 29.094-13.04 3.27-26.496-3.475-31.769-15.846-5.204-12.208-.999-26.338 10.09-33.621 32.511-21.349 140.754-76.853 249.904-64.547 145.93 16.452 178.187-4.077 178.187-4.077l131.078 13.616-73.155 84.563z"/><path d="M542.463 245.64s-100.608 31.879-166.2 20.551c-65.592-11.329-131.327-52.758-199.34-29.732-41.099 13.914-76.899 23.605-98.795 29.094-13.04 3.27-26.496-3.475-31.769-15.846-5.204-12.208-.999-26.338 10.09-33.621 32.511-21.349 147.084-64.864 290.895-70.856 146.727-6.115 246.081-19.37 246.081-19.37l22.192 35.216-73.153 84.565z"/></g><ellipse cx="90.639" cy="310.194" fill="#e59673" rx="22.272" ry="10.696" transform="matrix(.88119621 -.47275071 .47275071 .88119621 -135.877 79.703)"/><ellipse cx="55.778" cy="278.307" fill="#e59673" rx="25.876" ry="12.426" transform="matrix(.88119621 -.47275071 .47275071 .88119621 -124.944 59.434)"/><ellipse cx="29.147" cy="255.293" fill="#e59673" rx="29.954" ry="12.426" transform="matrix(.88121271 -.47271995 .47271995 .88121271 -117.222 44.105)"/><g clip-path="url(#b)"><path d="M72.516 339.872c-1.642 0-7.245-1.242-7.93-2.848-6.013-14.104 2.931-30.15 15.699-38.536 30.886-20.282 88.331-58.001 189.67-58.001h.503a4.228 4.228 0 0 1-.004 8.454c-.188.002-.336 0-.494 0-98.827 0-154.888 36.817-185.037 56.615-9.345 6.138-18.962 21.29-14.555 31.626.915 2.147 2.703 2.691 2.149 2.691z"/><path d="M32.064 310.438a4.229 4.229 0 0 1-3.902-2.602c-5.861-14.074-1.067-30.375 11.4-38.755 38.652-25.985 128.912-69.905 222.278-69.905h.374a4.228 4.228 0 0 1-.004 8.454c-.123.025-.26 0-.38 0-114.396 0-213.39 65.67-217.552 68.47-9.133 6.138-9.582 18.624-9.582 28.906.898 2.158 1.146 4.21-1.007 5.108a4.295 4.295 0 0 1-1.625.323zm11.75-76.347c-1.375 0-2.393-.277-3.204-1.513a4.23 4.23 0 0 1 1.213-5.855c41.304-27.122 117.455-56.061 207.415-56.061h.516a4.228 4.228 0 0 1-.004 8.454c-.19-.027-.342 0-.511 0-88.105 0-162.822 27.83-203.108 54.281a4.215 4.215 0 0 1-2.316.693z"/></g><path d="M618.088 122.698v199.519l171.932-3.857-91.327-210.017z"/><path d="M1384.996 208.523c-25.88 60.54-93.07 103.48-158.78 107.23l-355.49 16.29-38.23 1.75-79.42-237.66 240.51-29.85 371.68-27.82c.83 1.05 1.63 2.11 2.43 3.18 15.66 24.76 25.66 51.76 29.2 79.21 3.81 29.47.17 59.44-11.9 87.67z" fill="#f3ead9"/><path d="M1395.266 163.043c-15.33 81.16-88.94 141.57-171.27 148.31l-353.27 20.69-227.82 13.34-16.34-240.23 511.99-66.69s79.67-31.38 141-37.89c36.61-3.89 65.61 12.4 85.71 37.89.83 1.05 1.63 2.11 2.43 3.18 16.47 22.31 26.47 50.96 29.2 79.21 1.4 14.47.89 28.84-1.63 42.19z" fill="#f3ead9"/><path d="M990.18 66.04a5 5 0 0 1-.802-9.935l138.101-22.61a4.995 4.995 0 0 1 5.742 4.127 5 5 0 0 1-4.126 5.742l-138.102 22.61a4.998 4.998 0 0 1-.813.066z"/></svg></g></svg>