<svg xmlns="http://www.w3.org/2000/svg" viewBox="0 0 3000 2250" width="3000" height="2250"><g transform="translate(198.75 296.25) rotate(0.0 1301.25 504.375) scale(3.652764872823429 3.654891304347826)"><svg width="712.474" height="276" viewBox="0 0 712.474 276"><path d="M.5.5h711.474v275H.5z" fill="#fff"/><path d="M711.974 276H.5a.5.5 0 0 1-.5-.5V.5A.5.5 0 0 1 .5 0h711.474a.5.5 0 0 1 .5.5v275a.5.5 0 0 1-.5.5zM1 275h710.474V1H1z" fill="#1d2445"/><path d="M51.306.5h50.806v275H51.306z" fill="#fff"/><path d="M102.113 276H51.306a.5.5 0 0 1-.5-.5V.5a.5.5 0 0 1 .5-.5h50.807a.5.5 0 0 1 .5.5v275a.5.5 0 0 1-.5.5zm-50.307-1h49.807V1H51.806z" fill="#1d2445"/><path d="M102.113.5h50.806v275h-50.806z" fill="#fff"/><path d="M152.92 276h-50.807a.5.5 0 0 1-.5-.5V.5a.5.5 0 0 1 .5-.5h50.807a.5.5 0 0 1 .5.5v275a.5.5 0 0 1-.5.5zm-50.307-1h49.807V1h-49.807z" fill="#1d2445"/><path d="M152.919.5h50.806v275h-50.806z" fill="#fff"/><path d="M203.726 276H152.92a.5.5 0 0 1-.5-.5V.5a.5.5 0 0 1 .5-.5h50.806a.5.5 0 0 1 .5.5v275a.5.5 0 0 1-.5.5zm-50.306-1h49.806V1H153.42z" fill="#1d2445"/><path d="M203.726.5h50.806v275h-50.806z" fill="#fff"/><path d="M254.532 276h-50.807a.5.5 0 0 1-.5-.5V.5a.5.5 0 0 1 .5-.5h50.807a.5.5 0 0 1 .5.5v275a.5.5 0 0 1-.5.5zm-50.306-1h49.807V1h-49.807z" fill="#1d2445"/><path d="M254.532.5h50.806v275h-50.806z" fill="#fff"/><path d="M305.339 276h-50.806a.5.5 0 0 1-.5-.5V.5a.5.5 0 0 1 .5-.5h50.806a.5.5 0 0 1 .5.5v275a.5.5 0 0 1-.5.5zm-50.307-1h49.806V1h-49.806z" fill="#1d2445"/><path d="M305.339.5h50.806v275h-50.806z" fill="#fff"/><path d="M356.145 276h-50.807a.5.5 0 0 1-.5-.5V.5a.5.5 0 0 1 .5-.5h50.807a.5.5 0 0 1 .5.5v275a.5.5 0 0 1-.5.5zm-50.306-1h49.807V1h-49.807z" fill="#1d2445"/><path d="M356.145.5h50.806v275h-50.806z" fill="#fff"/><path d="M406.952 276h-50.807a.5.5 0 0 1-.5-.5V.5a.5.5 0 0 1 .5-.5h50.807a.5.5 0 0 1 .5.5v275a.5.5 0 0 1-.5.5zm-50.307-1h49.807V1h-49.807z" fill="#1d2445"/><path d="M406.952.5h50.806v275h-50.806z" fill="#fff"/><path d="M457.758 276h-50.806a.5.5 0 0 1-.5-.5V.5a.5.5 0 0 1 .5-.5h50.806a.5.5 0 0 1 .5.5v275a.5.5 0 0 1-.5.5zm-50.306-1h49.806V1h-49.806z" fill="#1d2445"/><path d="M457.758.5h50.806v275h-50.806z" fill="#fff"/><path d="M508.565 276h-50.807a.5.5 0 0 1-.5-.5V.5a.5.5 0 0 1 .5-.5h50.807a.5.5 0 0 1 .5.5v275a.5.5 0 0 1-.5.5zm-50.307-1h49.807V1h-49.807z" fill="#1d2445"/><path d="M508.565.5h50.806v275h-50.806z" fill="#fff"/><path d="M559.371 276h-50.806a.5.5 0 0 1-.5-.5V.5a.5.5 0 0 1 .5-.5h50.806a.5.5 0 0 1 .5.5v275a.5.5 0 0 1-.5.5zm-50.306-1h49.806V1h-49.806z" fill="#1d2445"/><path d="M559.371.5h50.806v275h-50.806z" fill="#fff"/><path d="M610.177 276H559.37a.5.5 0 0 1-.5-.5V.5a.5.5 0 0 1 .5-.5h50.807a.5.5 0 0 1 .5.5v275a.5.5 0 0 1-.5.5zm-50.306-1h49.807V1h-49.807z" fill="#1d2445"/><path d="M610.177.5h50.806v275h-50.806z" fill="#fff"/><path d="M660.984 276h-50.807a.5.5 0 0 1-.5-.5V.5a.5.5 0 0 1 .5-.5h50.807a.5.5 0 0 1 .5.5v275a.5.5 0 0 1-.5.5zm-50.307-1h49.807V1h-49.807z" fill="#1d2445"/><path d="M660.984.5h50.806v275h-50.806z" fill="#fff"/><path d="M711.79 276h-50.806a.5.5 0 0 1-.5-.5V.5a.5.5 0 0 1 .5-.5h50.806a.5.5 0 0 1 .5.5v275a.5.5 0 0 1-.5.5zm-50.306-1h49.806V1h-49.806z" fill="#1d2445"/><path d="M174.255 131.185H77.193a8 8 0 0 0-8 8V275.5h113.062V139.185a8 8 0 0 0-8-8z" fill="#fff"/><path d="M182.255 276H69.193a.5.5 0 0 1-.5-.5V139.185c0-4.687 3.813-8.5 8.5-8.5h97.062c4.687 0 8.5 3.813 8.5 8.5V275.5a.5.5 0 0 1-.5.5zm-112.562-1h112.062V139.185c0-4.136-3.364-7.5-7.5-7.5H77.193c-4.136 0-7.5 3.364-7.5 7.5z" fill="#1d2445"/><path d="M174.255 218.509H69.193V275.5h113.062v-48.991a8 8 0 0 0-8-8z" fill="#fff"/><path d="M182.255 276H69.193a.5.5 0 0 1-.5-.5v-56.99a.5.5 0 0 1 .5-.5h105.062c4.687 0 8.5 3.813 8.5 8.5v48.99a.5.5 0 0 1-.5.5zm-112.562-1h112.062v-48.49c0-4.136-3.364-7.5-7.5-7.5H69.693z" fill="#1d2445"/><path d="M190.255 131.185h97.062a8 8 0 0 1 8 8V275.5H182.255V139.185a8 8 0 0 1 8-8z" fill="#fff"/><path d="M295.317 276H182.255a.5.5 0 0 1-.5-.5V139.185c0-4.687 3.813-8.5 8.5-8.5h97.062c4.687 0 8.5 3.813 8.5 8.5V275.5a.5.5 0 0 1-.5.5zm-112.562-1h112.062V139.185c0-4.136-3.364-7.5-7.5-7.5h-97.062c-4.136 0-7.5 3.364-7.5 7.5z" fill="#1d2445"/><path d="M190.255 218.509h105.062V275.5H182.255v-48.991a8 8 0 0 1 8-8z" fill="#fff"/><path d="M295.317 276H182.255a.5.5 0 0 1-.5-.5v-48.99c0-4.687 3.813-8.5 8.5-8.5h105.062a.5.5 0 0 1 .5.5v56.99a.5.5 0 0 1-.5.5zm-112.562-1h112.062v-55.99H190.255c-4.136 0-7.5 3.364-7.5 7.5z" fill="#1d2445"/><path d="M295.044 176.226h16.172a8 8 0 0 1 8 8V275.5h-32.172v-91.274a8 8 0 0 1 8-8z" fill="#fff"/><path d="M319.216 276h-32.172a.5.5 0 0 1-.5-.5v-91.273c0-4.687 3.813-8.5 8.5-8.5h16.172c4.687 0 8.5 3.813 8.5 8.5V275.5a.5.5 0 0 1-.5.5zm-31.672-1h31.172v-90.773c0-4.136-3.364-7.5-7.5-7.5h-16.172c-4.136 0-7.5 3.364-7.5 7.5z" fill="#1d2445"/><path d="M174.255 218.509H69.193V275.5h113.062v-48.991a8 8 0 0 0-8-8z" fill="#fff"/><path d="M182.255 276H69.193a.5.5 0 0 1-.5-.5v-56.99a.5.5 0 0 1 .5-.5h105.062c4.687 0 8.5 3.813 8.5 8.5v48.99a.5.5 0 0 1-.5.5zm-112.562-1h112.062v-48.49c0-4.136-3.364-7.5-7.5-7.5H69.693z" fill="#1d2445"/><path d="M627.351 113.049h5.646v70.008h-5.646z" fill="#fff"/><path d="M632.997 183.556h-5.646a.5.5 0 0 1-.5-.5v-70.008a.5.5 0 0 1 .5-.5h5.646a.5.5 0 0 1 .5.5v70.008a.5.5 0 0 1-.5.5zm-5.146-1h4.646v-69.008h-4.646z" fill="#1d2445"/><path d="M655.891 205.492h5.646V275.5h-5.646z" fill="#fff"/><path d="M661.536 276h-5.646a.5.5 0 0 1-.5-.5v-70.008a.5.5 0 0 1 .5-.5h5.646a.5.5 0 0 1 .5.5V275.5a.5.5 0 0 1-.5.5zm-5.145-1h4.646v-69.008h-4.646z" fill="#1d2445"/><path d="M395.397 205.492h5.646V275.5h-5.646z" fill="#fff"/><path d="M401.043 276h-5.646a.5.5 0 0 1-.5-.5v-70.008a.5.5 0 0 1 .5-.5h5.646a.5.5 0 0 1 .5.5V275.5a.5.5 0 0 1-.5.5zm-5.146-1h4.646v-69.008h-4.646z" fill="#1d2445"/><path d="M652.193 126.599h-44.038l9.034-44.037h25.97z" fill="#fff"/><path d="M652.213 127.099a.067.067 0 0 0-.02 0h-44.037a.498.498 0 0 1-.49-.601l9.033-44.037a.5.5 0 0 1 .49-.399h25.971a.5.5 0 0 1 .49.399l9.006 43.905a.5.5 0 0 1-.443.733zm-43.445-1h42.812l-8.828-43.037h-25.155z" fill="#1d2445"/><path d="M85.145 34.863h98v64h-98z" fill="#fff"/><path d="M183.145 99.363h-98a.5.5 0 0 1-.5-.5v-64a.5.5 0 0 1 .5-.5h98a.5.5 0 0 1 .5.5v64a.5.5 0 0 1-.5.5zm-97.5-1h97v-63h-97z" fill="#1d2445"/><path d="M389.01 176.505h278.986v83.996H389.01z" fill="#fff"/><g fill="#1d2445"><path d="M667.996 261.001H389.01a.5.5 0 0 1-.5-.5v-83.996a.5.5 0 0 1 .5-.5h278.986a.5.5 0 0 1 .5.5v83.996a.5.5 0 0 1-.5.5zm-278.486-1h277.986v-82.996H389.51zm237.813-134.087h5.569v2.64h-5.569z"/><path d="M655.99 260.914h5.569v2.64h-5.569zm-260.512-.161h5.569v2.64h-5.569z"/></g><path d="M69.466 176.226H53.294a8 8 0 0 0-8 8V275.5h32.172v-91.274a8 8 0 0 0-8-8z" fill="#fff"/><path d="M77.466 276H45.294a.5.5 0 0 1-.5-.5v-91.273c0-4.687 3.813-8.5 8.5-8.5h16.172c4.687 0 8.5 3.813 8.5 8.5V275.5a.5.5 0 0 1-.5.5zm-31.672-1h31.172v-90.773c0-4.136-3.364-7.5-7.5-7.5H53.294c-4.136 0-7.5 3.364-7.5 7.5z" fill="#1d2445"/></svg></g><g transform="translate(843.75 1518.75) rotate(0.0 168.75 146.25) scale(3.6909045176671293 3.6638066011147994)"><svg width="91.441" height="79.835" viewBox="0 0 91.441 79.835"><path d="M84.727 26.892C73.851 6.507 55.637 1.522 44.334.513c-2.882-.257-4.236 3.484-1.852 5.122 7.456 5.121 13.974 11.042 19.405 17.493-14.853-9.881-29.702-7.629-38.513-4.694-2.413.804-2.192 4.295.305 4.778 15.332 2.969 28.837 9.689 38.85 18.932A52.585 52.585 0 0 0 47.43 36.87C24.569 32.601 9.2 43.788 1.304 52.035c-2.03 2.121.099 5.505 2.909 4.655 20.417-6.177 40.665-5.533 57.556 1.286.21.265.412.524.624.79a40.34 40.34 0 0 0-14.575-2.787c-17.857-.097-27.941 10.457-32.781 17.771-1.234 1.865.813 4.161 2.803 3.141 21.638-11.085 45.02-10.267 61.367 1.477.253.268.502.544.756.811l4.348.155c0 .001 14.637-25.786.416-52.442z" fill="#fff"/><g fill="#1d2445"><path d="M84.311 79.835h-.018l-4.348-.155a.5.5 0 0 1-.344-.154l-.759-.813c-8.33-5.973-18.707-9.163-29.936-9.163-10.229 0-20.893 2.693-30.839 7.789-1.312.672-2.902.138-3.586-1.136a2.623 2.623 0 0 1 .138-2.726c4.447-6.721 14.643-17.996 32.955-17.996h.246c2.432.013 4.839.238 7.205.672-7.208-2.138-14.877-3.219-22.882-3.219-9.147 0-18.496 1.425-27.787 4.236a3.37 3.37 0 0 1-4.088-1.905c-.531-1.244-.28-2.58.673-3.575 7.101-7.417 19.213-16.259 36.591-16.259 3.256 0 6.617.319 9.988.949 4.1.766 8.073 1.999 11.853 3.675-9.761-8.063-22.054-13.691-35.791-16.351-1.366-.264-2.307-1.333-2.397-2.723-.091-1.394.706-2.579 2.029-3.021 5.04-1.678 10.146-2.529 15.178-2.529 7.423 0 14.456 1.864 20.951 5.546-5.007-5.532-10.762-10.544-17.146-14.929-1.22-.838-1.725-2.292-1.287-3.703.474-1.528 1.835-2.477 3.467-2.33 10.423.93 29.58 5.629 40.791 26.641 14.186 26.591-.275 52.666-.422 52.926a.502.502 0 0 1-.435.253zm-4.124-1.147 3.831.137c1.467-2.788 13.43-27.026.268-51.698C73.297 6.53 54.51 1.923 44.289 1.011c-1.362-.125-2.173.826-2.423 1.631-.243.783-.135 1.872.899 2.582 7.397 5.081 13.959 10.997 19.505 17.583a.5.5 0 0 1-.66.738c-7.095-4.721-14.906-7.114-23.216-7.114-4.924 0-9.924.834-14.862 2.479-1.068.355-1.393 1.303-1.347 2.006.046.7.489 1.593 1.589 1.807 15.275 2.958 28.793 9.547 39.094 19.056a.5.5 0 0 1-.573.808 52.314 52.314 0 0 0-14.956-5.224 53.519 53.519 0 0 0-9.804-.932c-17.025 0-28.903 8.674-35.869 15.951-.667.696-.844 1.627-.476 2.491a2.358 2.358 0 0 0 2.879 1.34c9.385-2.839 18.831-4.279 28.076-4.279 10.611 0 20.641 1.877 29.812 5.58.08.033.151.085.205.153l.623.79a.5.5 0 0 1-.573.777 39.958 39.958 0 0 0-14.395-2.753h-.241c-16.951 0-26.824 9.542-32.121 17.548-.353.533-.386 1.153-.092 1.701.43.799 1.416 1.145 2.249.72 10.087-5.167 20.909-7.899 31.295-7.899 11.44 0 22.018 3.255 30.591 9.414z"/><path d="M82.572 55.584a.5.5 0 0 1-.485-.379C78.425 40.56 71.323 29.75 60.977 23.076a.5.5 0 1 1 .542-.84c10.566 6.816 17.813 17.827 21.538 32.727a.5.5 0 0 1-.485.621zm-.381 12.917a.5.5 0 0 1-.485-.381c-2.681-10.913-12.749-21.812-20.86-26.525a.499.499 0 1 1 .503-.864c8.289 4.816 18.582 15.969 21.329 27.151a.499.499 0 0 1-.487.619zm-.833 8a.498.498 0 0 1-.47-.331c-2.794-7.751-13.376-15.578-21.507-18.024a.501.501 0 0 1 .288-.958c8.329 2.506 19.169 10.347 22.16 18.643a.5.5 0 0 1-.471.67z"/></g></svg></g><g transform="translate(1128.75 472.5) rotate(0.0 371.25 686.25) scale(3.75 3.75)"><svg width="198" height="366" viewBox="0 0 198 366"><path d="M20.5 361.5h157c8.837 0 16-7.163 16-16v-325c0-8.837-7.163-16-16-16h-157c-8.837 0-16 7.163-16 16v325c0 8.836 7.163 16 16 16z" fill="#FFF"/><g fill="#1D2445"><path d="M177.5 366h-157C9.196 366 0 356.804 0 345.5v-325C0 9.196 9.196 0 20.5 0h157C188.804 0 198 9.196 198 20.5v325c0 11.304-9.196 20.5-20.5 20.5zM20.5 9C14.159 9 9 14.159 9 20.5v325c0 6.341 5.159 11.5 11.5 11.5h157c6.341 0 11.5-5.159 11.5-11.5v-325c0-6.341-5.159-11.5-11.5-11.5z"/><path d="M99 2.228H58.683l3.15 6.719h14.43c4.554 0 9.002 1.369 12.768 3.93l3.798 2.582a10.976 10.976 0 0 0 12.344 0l3.798-2.582a22.704 22.704 0 0 1 12.768-3.93h14.43l3.15-6.719z"/></g></svg></g><g transform="translate(1256.25 1057.5) rotate(0.0 241.875 258.75) scale(3.7040581929555896 3.7017167381974247)"><svg width="130.6" height="139.8" viewBox="0 0 130.6 139.8"><switch><g><path d="m130.1 27.7-6.1-4H7.5l-7 4v111.6h129.6z" fill="#fff"/><g fill="#1d2445"><path d="M130.1 139.8H.5c-.3 0-.5-.2-.5-.5V27.7c0-.2.1-.3.3-.4l7-4c.1 0 .2-.1.2-.1H124c.1 0 .2 0 .3.1l6.1 4c.1.1.2.2.2.4v111.7c0 .2-.2.4-.5.4zM1 138.8h128.6V27.9l-5.7-3.8H7.6L1 28z"/><path d="M111.5.5H19.1L.5 27.7h129.6z"/><path d="M130.1 28.2H.5c-.2 0-.4-.1-.4-.3s-.1-.4 0-.5L18.7.2c.1-.1.3-.2.4-.2h92.4c.2 0 .3.1.4.2l18.6 27.2c.1.2.1.4 0 .5s-.2.3-.4.3zm-128.7-1h127.7L111.2 1H19.4z"/></g><path d="M97.7 14H32.9c-.8 0-1.5-.7-1.5-1.5s.7-1.5 1.5-1.5h64.8c.8 0 1.5.7 1.5 1.5s-.7 1.5-1.5 1.5zM25.6 85.9l-7.4-21.3c-.2-.7.3-1.3.9-1.3h5c.4 0 .8.3 1 .7 0 0 4.2 13.5 4.9 16.6.7-2.9 5-16.6 5-16.6.1-.4.5-.7 1-.7h4.7c.7 0 1.2.7.9 1.3l-7.7 21.3c-.1.4-.5.7-.9.7h-6.4c-.4 0-.8-.3-1-.7z" fill="#fff"/><path d="M33 87.1h-6.4c-.6 0-1.2-.4-1.4-1l-7.4-21.3c-.2-.5-.1-1 .2-1.4s.7-.6 1.2-.6h5c.7 0 1.2.4 1.4 1 .1.5 3.2 10.2 4.4 14.8 1.3-4.6 4.4-14.4 4.5-14.8.2-.6.8-1 1.4-1h4.7c.5 0 .9.2 1.2.6s.3.9.2 1.4l-7.7 21.3c-.1.6-.7 1-1.3 1zM19.1 63.8c-.2 0-.3.1-.4.2s-.1.3-.1.5L26 85.8c.1.2.3.3.5.3H33c.2 0 .4-.1.5-.3l7.7-21.3c.1-.2 0-.3-.1-.5-.1-.1-.2-.2-.4-.2H36c-.2 0-.4.1-.5.3 0 .1-4.3 13.7-4.9 16.5-.1.2-.3.4-.5.4s-.5-.2-.6-.4c-.6-3-4.8-16.4-4.8-16.5-.1-.2-.3-.3-.5-.3z" fill="#1d2445"/><path d="M69.7 74.8c0 7-4.9 12.2-12.9 12.2-7.7 0-12.3-5.1-12.3-11.8 0-7.1 5.1-12.3 12.7-12.3 7.8 0 12.5 5 12.5 11.9zm-18.3.2c0 4 2.2 7 5.7 7 3.6 0 5.7-3 5.7-7s-2.2-7-5.7-7-5.7 3-5.7 7z" fill="#fff"/><path d="M56.7 87.5c-7.6 0-12.8-5.1-12.8-12.3 0-7.5 5.4-12.8 13.2-12.8s13 5 13 12.4c.1 7.6-5.3 12.7-13.4 12.7zm.5-24.1C50 63.4 45 68.2 45 75.2c0 6.8 4.8 11.3 11.8 11.3 7.4 0 12.4-4.7 12.4-11.7 0-6.9-4.7-11.4-12-11.4zm-.1 19c-3.7 0-6.2-3.1-6.2-7.5s2.5-7.5 6.2-7.5 6.2 3.1 6.2 7.5c-.1 4.5-2.5 7.5-6.2 7.5zm0-14c-3.1 0-5.2 2.7-5.2 6.5 0 3.9 2.1 6.5 5.2 6.5s5.2-2.5 5.2-6.5c-.1-3.8-2.2-6.5-5.2-6.5z" fill="#1d2445"/><path d="M78.1 68.6h-5.6c-.6 0-1-.4-1-1v-3.3c0-.6.4-1 1-1h17.8c.6 0 1 .4 1 1v3.3c0 .6-.4 1-1 1h-5.7v17c0 .6-.4 1-1 1h-4.5c-.6 0-1-.4-1-1z" fill="#fff"/><path d="M83.6 87.1h-4.5c-.8 0-1.5-.7-1.5-1.5V69.1h-5.1c-.8 0-1.5-.7-1.5-1.5v-3.3c0-.8.7-1.5 1.5-1.5h17.8c.8 0 1.5.7 1.5 1.5v3.3c0 .8-.7 1.5-1.5 1.5h-5.2v16.5c0 .8-.7 1.5-1.5 1.5zM72.5 63.8c-.3 0-.5.2-.5.5v3.3c0 .3.2.5.5.5h5.6c.3 0 .5.2.5.5v17c0 .3.2.5.5.5h4.5c.3 0 .5-.2.5-.5v-17c0-.3.2-.5.5-.5h5.7c.3 0 .5-.2.5-.5v-3.3c0-.3-.2-.5-.5-.5z" fill="#1d2445"/><path d="M110.4 77.3h-8.5v4h9.6c.6 0 1 .4 1 1v3.2c0 .6-.4 1-1 1H96.4c-.6 0-1-.4-1-1V64.3c0-.6.4-1 1-1H111c.6 0 1 .4 1 1v3.2c0 .6-.4 1-1 1h-9v3.6h8.5c.6 0 1 .4 1 1v3.2c-.1.6-.6 1-1.1 1z" fill="#fff"/><path d="M111.5 87.1H96.4c-.8 0-1.5-.7-1.5-1.5V64.3c0-.8.7-1.5 1.5-1.5H111c.8 0 1.5.7 1.5 1.5v3.2c0 .8-.7 1.5-1.5 1.5h-8.5v2.6h8c.8 0 1.5.7 1.5 1.5v3.2c0 .8-.7 1.5-1.5 1.5h-8v3h9.1c.8 0 1.5.7 1.5 1.5v3.2c-.1.9-.8 1.6-1.6 1.6zM96.4 63.8c-.3 0-.5.2-.5.5v21.3c0 .3.2.5.5.5h15.1c.3 0 .5-.2.5-.5v-3.2c0-.3-.2-.5-.5-.5h-9.6c-.3 0-.5-.2-.5-.5v-4c0-.3.2-.5.5-.5h8.5c.3 0 .5-.2.5-.5v-3.2c0-.3-.2-.5-.5-.5h-8.5c-.3 0-.5-.2-.5-.5v-3.6c0-.3.2-.5.5-.5h9c.3 0 .5-.2.5-.5v-3.2c0-.3-.2-.5-.5-.5H96.4z" fill="#1d2445"/></g></switch></svg></g><g transform="translate(1470.0 780.0) rotate(50.412254082367504 129.375 150.0) scale(4.67057761732852 4.643962848297214)"><svg width="55.4" height="64.6" viewBox="0 0 55.4 64.6"><switch><g><path d="M.557 12.498 38.832.544 54.96 52.182 16.684 64.136z" fill="#fff"/><g fill="#1d2445"><path d="M16.6 64.6c-.2 0-.4-.1-.5-.4L0 12.6c-.1-.3.1-.5.3-.6L38.7 0h.4c.1.1.2.2.2.3L55.4 52v.4c-.1.1-.2.2-.3.2l-38.3 12h-.2zM1.1 12.8 17 63.5l37.4-11.7L38.5 1.1z"/><path d="m31.6 45.6-18-10 2-3.5 13.2 7.4L34 14.7l3.9.8z"/></g></g></switch></svg></g><g transform="translate(1691.25 513.75) rotate(0.0 337.5 673.125) scale(3.7389079065439197 3.7386486711655422)"><svg width="180.534" height="360.09" viewBox="0 0 180.534 360.09"><path d="m107.189 253.483-9.888-23.965-2.92-54.301-1.914-46.707-26.586-1.083-5.386 21.061a7.178 7.178 0 0 0-.027 3.405l18.537 79.701 1.499 27.864a18.29 18.29 0 0 0 .481 3.296l16.341 68.215s14.701-.039 15.176-.015l-3.925-71.398a18.627 18.627 0 0 0-1.388-6.073z" fill="#fff"/><g fill="#1d2445"><path d="M97.326 331.471a.5.5 0 0 1-.486-.383l-16.342-68.215a18.892 18.892 0 0 1-.493-3.386l-1.499-27.864-18.526-79.616a7.72 7.72 0 0 1 .03-3.643l5.386-21.061a.494.494 0 0 1 .505-.375l26.586 1.083a.5.5 0 0 1 .479.479l1.914 46.707 2.916 54.209 9.854 23.886a19.03 19.03 0 0 1 1.425 6.237L113 330.927a.5.5 0 0 1-.145.38.47.47 0 0 1-.38.147c-.49-.023-15.148.017-15.149.017zM66.264 127.944l-5.285 20.669a6.69 6.69 0 0 0-.024 3.168l18.537 79.701 1.511 27.951c.058 1.071.215 2.15.468 3.207l16.25 67.831c2.087-.005 11.801-.032 14.253-.02l-3.896-70.866a18.039 18.039 0 0 0-1.351-5.91l-9.888-23.965a.514.514 0 0 1-.037-.164l-2.921-54.301-1.896-46.253z"/><path d="M65.127 130.946h51.931l24.583-58.982H88.692z"/><path d="M117.391 131.446H64.388l23.965-59.982h54.038zm-51.526-1h50.86l24.166-57.982h-51.86z"/><path d="m60.134 96.606 93.628-22.063-12.937-19.947a11.235 11.235 0 0 0-11.664-4.897L78.756 59.942a11.234 11.234 0 0 0-8.37 7.307z"/><path d="m59.362 97.302 10.552-30.219a11.789 11.789 0 0 1 8.743-7.631l50.404-10.243c.77-.156 1.556-.235 2.339-.235 3.991 0 7.671 2 9.845 5.351l13.323 20.543zM131.4 49.974c-.716 0-1.436.073-2.14.215L78.856 60.432a10.79 10.79 0 0 0-7.999 6.982l-9.95 28.497 92.05-21.691-12.552-19.352a10.695 10.695 0 0 0-9.005-4.894z"/><path d="M71.264 70.376 51.223 114.87l8.731 10.092c1.289 1.49 3.686 1.162 4.527-.62L89.03 72.351z"/><path d="M62.009 126.405c-.934 0-1.82-.407-2.434-1.116l-8.94-10.333.131-.292 20.191-44.826L89.78 71.93l-24.849 52.625a3.2 3.2 0 0 1-2.922 1.85zm-10.2-11.62 8.522 9.85c.43.497 1.025.77 1.678.771.874 0 1.647-.489 2.019-1.276l24.251-51.36-16.708-1.857z"/></g><path d="m143.576 331.355-9.581-67.123c-.268-1.877-.83-3.7-1.666-5.402l-15.382-31.335-11.473-88.101-26.528-1.083-7.038 22.738 30.294 81.528 3.243 22.571a20.044 20.044 0 0 0 1.074 4.189l24.315 64.721c-.513.171 12.742-2.703 12.742-2.703z" fill="#fff"/><path d="M130.824 334.565a.504.504 0 0 1-.496-.421l-.004-.026-24.271-64.605a20.553 20.553 0 0 1-1.102-4.294l-3.235-22.518-30.276-81.478a.507.507 0 0 1-.009-.322l7.038-22.738a.503.503 0 0 1 .498-.352l26.527 1.083a.5.5 0 0 1 .476.435l11.462 88.019 15.347 31.261a18.532 18.532 0 0 1 1.711 5.552l9.581 67.122a.501.501 0 0 1-.389.56c-8.329 1.806-12.655 2.722-12.858 2.722zM72.437 161.034l30.234 81.368a.472.472 0 0 1 .026.103l3.243 22.571c.2 1.393.553 2.767 1.047 4.085l24.171 64.336c1.581-.316 7.544-1.598 11.856-2.533l-9.516-66.662a17.524 17.524 0 0 0-1.619-5.253l-15.383-31.335a.531.531 0 0 1-.047-.156l-11.418-87.683-25.722-1.05z" fill="#1d2445"/><path d="M95.959 329.076h16.335v5.94H95.959z" fill="#99644c"/><path d="M93.005 345.15h22.789l.021-2.296a26.103 26.103 0 0 0-1.585-9.201l-2.094-5.73-19.132 7.027v10.2z" fill="#1d2445"/><path d="M112.574 326.39v8.758c-.52 0-14.169 7.462-14.537 7.83l-2.172 2.172H68.993l.866-2.49a3.921 3.921 0 0 1 2.784-2.524l14.076-3.403a11.742 11.742 0 0 0 6.664-4.407l3.236-4.353a3.922 3.922 0 0 1 3.148-1.582h12.807z" fill="#1d2445"/><path d="M69.174 344.782h46.635v3.503H69.174z" fill="#fff"/><path d="M115.809 348.785H69.173a.5.5 0 0 1-.5-.5v-3.503a.5.5 0 0 1 .5-.5h46.636a.5.5 0 0 1 .5.5v3.503a.5.5 0 0 1-.5.5zm-46.136-1h45.636v-2.503H69.673z" fill="#1d2445"/><path d="M116.2 134.092H63.874l-3.166 13.848a20 20 0 0 0-.019 8.831l13.848 61.784H116.2l.571-66.202z" fill="#fff"/><path d="M116.2 219.057H74.538a.5.5 0 0 1-.488-.391l-13.848-61.784a20.62 20.62 0 0 1 .02-9.052l3.166-13.849a.5.5 0 0 1 .487-.389H116.2a.5.5 0 0 1 .5.484l.57 18.262-.57 66.222a.5.5 0 0 1-.5.497zm-41.262-1h40.766l.566-65.707-.555-17.758H64.273l-3.077 13.46a19.625 19.625 0 0 0-.018 8.611z" fill="#1d2445"/><path d="m81.137 73.382-11.851 8.573a7.489 7.489 0 0 0-2.854 7.973l3.823 14.548a7.5 7.5 0 0 1 .011 3.767l-6.632 25.831 54.172 21.757-.122-27.945 5.403-58.623z" fill="#1d2445"/><path d="m118.308 156.571-55.27-22.197 6.742-26.255a7 7 0 0 0-.01-3.515l-3.823-14.547c-.833-3.168.392-6.586 3.045-8.505l11.96-8.652 42.688-4.192-5.459 59.226zm-54.082-22.798 53.076 21.316-.119-27.202 5.35-58.068-41.213 4.048-11.741 8.494a7.036 7.036 0 0 0-2.664 7.441l3.823 14.547a7.996 7.996 0 0 1 .012 4.018z" fill="#1d2445"/><path d="M137.416 356.425a7.202 7.202 0 0 0 6.475 3.147l9.219-.657c2.966-.312 4.665-3.536 3.246-6.16l-12.314-22.762-14.476 5.243 1.189 11.347z" fill="#fff"/><path d="M143.38 360.09c-.001 0-.001 0 0 0a7.69 7.69 0 0 1-6.378-3.385l-6.66-9.842a.504.504 0 0 1-.083-.228l-1.189-11.347a.498.498 0 0 1 .327-.522l14.476-5.243a.5.5 0 0 1 .609.232l12.314 22.762c.746 1.379.755 3.031.024 4.418s-2.099 2.313-3.657 2.477l-9.236.659a7.73 7.73 0 0 1-.547.019zm-12.14-13.684 6.59 9.739a6.692 6.692 0 0 0 5.549 2.945h.001c.158 0 .316-.005.477-.017l9.219-.657c1.228-.13 2.276-.84 2.86-1.948s.577-2.375-.019-3.476l-12.109-22.383-13.703 4.963z" fill="#1d2445"/><path d="M137.09 353.545a7.202 7.202 0 0 0 6.475 3.147l9.219-.657c2.966-.312 4.665-3.536 3.246-6.16l-12.314-22.762-14.476 5.243 1.189 11.347z" fill="#1d2445"/><path d="m139.506 335.989 6.615-2.41-3.897-10.698-2.441.889a3.599 3.599 0 0 0-2.261 4.252z" fill="#1d2445"/><path d="m131.223 339.007 8.892-3.239-3.945-7.388a3.6 3.6 0 0 0-4.408-1.687l-4.436 1.616z" fill="#1d2445"/><path d="m99.259 69.537 28.511-19.521-43.333 8.796 13.267 10.665c.448.361 1.08.385 1.555.06z" fill="#fff"/><path d="M98.521 70.265a1.81 1.81 0 0 1-1.131-.398L84.123 59.202a.502.502 0 0 1-.173-.508.502.502 0 0 1 .387-.372l43.334-8.796a.508.508 0 0 1 .561.295.5.5 0 0 1-.179.607L99.542 69.949a1.798 1.798 0 0 1-1.021.316zM85.58 59.09l12.438 9.998a.825.825 0 0 0 .96.037l26.476-18.127z" fill="#1d2445"/><path d="M101.458 67.057h1v29.811h-1zm-6.974-.667h1V97.7h-1z" fill="#fff"/><path d="M102.668 99.126h-1.42a.591.591 0 0 1-.529-.856l.71-1.42a.591.591 0 0 1 1.058 0l.71 1.42a.591.591 0 0 1-.529.856zm-6.888 0h-1.42a.591.591 0 0 1-.529-.856l.71-1.42a.591.591 0 0 1 1.058 0l.71 1.42a.591.591 0 0 1-.529.856z" fill="#fff"/><circle cx="123.436" cy="19.767" fill="#1d2445" r="14.657"/><path d="M99.54 5.721h12.325v25.152H99.54z" fill="#1d2445"/><path d="m115.967 36.67-7.576 3.366V7.964a3.408 3.408 0 0 1 3.408-3.408h1.533c7.304 0 12.892 6.504 11.792 13.725l-1.216 7.985a13.633 13.633 0 0 1-7.941 10.404z" fill="#1d2445"/><path d="m108.544 35.479-.038-6.742h.346a3.673 3.673 0 0 0 3.673-3.673v-1.787a3.673 3.673 0 0 0-3.673-3.673h-9.184v1.943l-4.213-1.948h6.73V7.765a3.408 3.408 0 0 0-3.408-3.408h-.445c-6.588 0-11.928 5.34-11.928 11.928V19.6h.304v1.955c0 .218.042.434.123.636l.795 1.978c.202.503.148 1.06-.12 1.509l-2.853 2.494a1.703 1.703 0 0 0 .337 2.795l1.718.892v6.243a3.407 3.407 0 0 0 3.422 3.408l7.219-.034v27.2c0 1.015 1.239 1.51 1.938.774l15.939-16.787V35.479z" fill="#fff"/><path d="M98.481 70.302c-.9 0-1.633-.729-1.633-1.626V41.978l-6.717.032a3.916 3.916 0 0 1-3.924-3.908v-5.939l-1.448-.751a2.206 2.206 0 0 1-.436-3.615l2.788-2.438c.16-.311.181-.68.051-1.003l-.796-1.978a2.214 2.214 0 0 1-.159-.822v-1.495a.499.499 0 0 1-.304-.46v-3.315c0-6.853 5.575-12.428 12.428-12.428h.445a3.912 3.912 0 0 1 3.908 3.908v11.34h6.167a4.178 4.178 0 0 1 4.173 4.172v1.787a4.178 4.178 0 0 1-4.016 4.17l.032 5.745h6.184a.5.5 0 0 1 .5.5v17.183a.497.497 0 0 1-.138.344L99.649 69.794c-.31.328-.726.508-1.168.508zm-1.133-29.326a.499.499 0 0 1 .5.5v27.2a.623.623 0 0 0 1.076.43l15.801-16.643V35.979h-6.181a.5.5 0 0 1-.5-.497l-.038-6.742a.498.498 0 0 1 .5-.502h.346a3.176 3.176 0 0 0 3.173-3.173v-1.787a3.176 3.176 0 0 0-3.173-3.172h-8.684v1.443a.5.5 0 0 1-.709.453l-4.213-1.948a.501.501 0 0 1 .21-.954h6.229V7.765a2.911 2.911 0 0 0-2.908-2.908h-.445c-6.302 0-11.428 5.126-11.428 11.428v2.855a.499.499 0 0 1 .304.46v1.955c0 .154.029.306.087.45l.796 1.977a2.214 2.214 0 0 1-.156 1.952.5.5 0 0 1-.1.12l-2.853 2.494a1.186 1.186 0 0 0-.402 1.05c.048.401.282.739.641.925l1.718.892a.5.5 0 0 1 .27.444v6.243a2.911 2.911 0 0 0 2.908 2.908l7.23-.035c-.001.001 0 .001.001.001zm.38-20.875 1.44.666v-.666z" fill="#1d2445"/><path d="M103.714 4.805H89.67v8.008a6.816 6.816 0 0 0 6.816 6.816h7.228z" fill="#1d2445"/><path d="M86.275 10.688C86.275 4.785 93.965 0 103.452 0c8.093 0 14.879 3.482 16.698 8.17.471 1.214-.464 2.517-1.766 2.517H86.275z" fill="#1d2445"/><path d="m97.489 41.432 4.053.016c.956.004 1.471 1.123.852 1.851" fill="#fff"/><path d="M102.393 43.799a.5.5 0 0 1-.381-.824.612.612 0 0 0 .092-.664.609.609 0 0 0-.564-.363l-4.053-.016c-.276-.001-.499-.226-.498-.502s.22-.529.502-.498l4.053.016c.639.002 1.202.365 1.469.945s.176 1.243-.238 1.729a.5.5 0 0 1-.382.177z" fill="#1d2445"/><circle cx="136.858" cy="27.028" fill="#1d2445" r="14.657"/><path d="M119.352 35.527a.5.5 0 0 1-.5-.5V5.557a.5.5 0 0 1 1 0v29.47a.5.5 0 0 1-.5.5zm4.318 0a.5.5 0 0 1-.442-.733l12.609-23.922a.5.5 0 1 1 .885.466l-12.61 23.922a.501.501 0 0 1-.442.267zm-59.45 82.679-1.772-2.55L33.31 91.973 27.549 85.8s-3.965-1.864-5.413-3.169l-4.994-3.178c-.965-.87-2.371-1.058-3.558-.582L6.27 81.872c-.617.231-1.132.642-1.568 1.124-.521.61-1.72 2.037-2.253 2.694-.218.241-.329.462-.453.729L.53 90.084l-.026.093c-.087.679 1.22 1.041 2.344.247.181-.122.341-.262.483-.418.212.536.84.951 1.99.934 2.683-.041 5.536-.116 5.996-.129l.004.047c3.926-.02 5.342 4.549 9.625 3.422 1.162-.235 1.756-.193 2.44-.174l24.343 30.3 1.991 1.887c4.131 3.916 10.731 3.45 14.272-1.007a5.934 5.934 0 0 0 .228-7.08zm-51.844-31.88-1.441.305.001.008-5.899 1.157a2.692 2.692 0 0 0-.519.162l.04-.076 2.24-2.647s5.807-1.007 6.704-1.161.315 1.947-1.126 2.252z" fill="#fff"/><path d="M56.392 129.456c-.001 0-.001 0 0 0-2.62 0-5.111-.994-7.014-2.798l-1.991-1.888L23.142 94.6c-.51-.015-.997-.052-2.096.171-.465.123-.95.188-1.414.188-1.793 0-3.081-.947-4.325-1.863-1.215-.894-2.363-1.738-3.959-1.738a.535.535 0 0 1-.207-.042c-.803.021-3.378.087-5.812.124h-.002c-1.109 0-1.733-.338-2.082-.685a3.166 3.166 0 0 1-.118.084c-.949.67-2.325.683-2.876.056a.985.985 0 0 1-.243-.782c.003-.023.033-.139.039-.161l1.485-3.72c.146-.318.281-.584.546-.878.518-.639 1.722-2.071 2.244-2.684.547-.608 1.141-1.031 1.772-1.268l7.3-2.997c1.387-.558 3.02-.284 4.082.673l4.928 3.128c1.443 1.292 5.317 3.12 5.356 3.138a.493.493 0 0 1 .152.111l5.762 6.174 29.087 23.636c.036.03.068.064.095.103l1.772 2.55a6.398 6.398 0 0 1-.244 7.678 10.145 10.145 0 0 1-7.992 3.86zM22.696 93.592c.185 0 .36.005.538.01l.167.005a.5.5 0 0 1 .376.187l24.344 30.3 1.945 1.838a9.16 9.16 0 0 0 6.325 2.523h.001a9.159 9.159 0 0 0 7.21-3.479 5.404 5.404 0 0 0 .207-6.485l-1.732-2.492-29.082-23.638-5.746-6.151c-.611-.291-4.065-1.963-5.447-3.208l-4.928-3.128a2.976 2.976 0 0 0-3.104-.54l-7.31 3.001c-.5.188-.949.512-1.386.996-.51.598-1.704 2.02-2.236 2.674-.189.211-.275.383-.388.625L.994 90.27c.04.008.186.106.512.106.203 0 .61-.047 1.054-.36.151-.102.284-.216.403-.347a.502.502 0 0 1 .834.154c.155.393.687.619 1.457.619 2.741-.042 5.593-.117 6.051-.129a.484.484 0 0 1 .235.052c1.834.07 3.117 1.014 4.359 1.928 1.167.858 2.269 1.668 3.733 1.668.384 0 .772-.053 1.188-.162.896-.184 1.449-.207 1.876-.207zM4.517 88.457a.499.499 0 0 1-.442-.734c.018-.032.077-.137.101-.165l2.24-2.647a.503.503 0 0 1 .297-.169s5.807-1.007 6.705-1.161c.027-.005.146-.016.174-.016.446 0 .78.321.83.798.083.795-.649 2.178-1.942 2.451l-1.354.286a.499.499 0 0 1-.093.028l-5.898 1.157c-.155.03-.294.079-.426.133a.481.481 0 0 1-.192.039zm2.545-2.761-1.211 1.43 4.9-.961a.516.516 0 0 1 .079-.024l1.441-.305c.53-.112.844-.555.954-.74.122-.206.176-.382.194-.5-1.157.199-5.428.94-6.357 1.1zm86.221-72.845h10.131v5.195c1.619.129 3.168.226 3.397.15.348-.116-3.312 3.936-5.604 6.448-.629.69-1.774.241-1.774-.693v-3.323c0-.565-.458-1.022-1.022-1.022h-1.563a3.564 3.564 0 0 1-3.564-3.564v-3.191z" fill="#1d2445"/><path d="M101.609 22.096H89.762l-.267-2.499h12.114z" fill="#1d2445"/><path d="M86.014 26.092a.522.522 0 0 1-.522-.522v-4.95c0-.288.234-.522.522-.522h3.304c.288 0 .522.234.522.522v4.95a.522.522 0 0 1-.522.522z" fill="#fff"/><path d="m89.318 20.597.022.022-.022 4.972-3.327-.022.022-4.972zm0-1h-3.304c-.565 0-1.022.458-1.022 1.022v4.95c0 .565.458 1.022 1.022 1.022h3.304c.565 0 1.022-.458 1.022-1.022v-4.95a1.021 1.021 0 0 0-1.022-1.022z" fill="#1d2445"/><path d="m89.744 33.16-.389.76a1.702 1.702 0 0 1-1.036.858l-1.541.453V33.12z" fill="#fff"/><path d="M86.778 35.731a.5.5 0 0 1-.5-.5V33.12c0-.134.054-.262.148-.356s.212-.121.358-.144l2.966.041a.501.501 0 0 1 .439.728l-.389.758c-.274.535-.763.94-1.34 1.11l-1.542.453a.444.444 0 0 1-.14.021zm.5-2.105v.937l.9-.265c.315-.093.582-.314.731-.607l.022-.043z" fill="#1d2445"/><path d="m123.9 131.619 33.291-10.48 17.45-8.841-9.415-13.201-43.075 23.066-.05-.003-.35.218-2.546 1.364.052.186-.507.315s-2.468 2.038-3.352 2.682c-2.331 1.698-2.878 3.703-3.557 5.649l-1.191 3.422a7.26 7.26 0 0 0-.148 3.854c.188.782.263 1.587.223 2.391-.084 2.281-.146 5.873-.146 5.873a1.39 1.39 0 0 0 1.172 1.278 1.338 1.338 0 0 0 1.546-1.089c.136-.733.988-5.097 1.282-6.454a.53.53 0 0 1 .461-.416.511.511 0 0 1 .519.299l.703 1.595 1.352 8.878-1.988 7.434a1.813 1.813 0 0 0 .929 2.08l.021.011.01.004a.457.457 0 0 0 .599-.244l3.301-7.717a6.132 6.132 0 0 0 .494-2.636l-.115-3.961 1.621-1.858a3.449 3.449 0 0 0 .859-2.339l-.09-7.411.062-1.7a5.4 5.4 0 0 1 .583-2.249z" fill="#fff"/><path d="M116.762 162.267a.93.93 0 0 1-.372-.076c-1.029-.522-1.527-1.638-1.249-2.684l1.961-7.334-1.326-8.708-.676-1.534c-.326 1.374-1.188 5.781-1.314 6.461a1.83 1.83 0 0 1-2.121 1.49c-.898-.174-1.526-.884-1.586-1.736-.001-.043.061-3.641.145-5.926a7.938 7.938 0 0 0-.209-2.255 7.774 7.774 0 0 1 .158-4.121l1.345-3.87c.64-1.863 1.301-3.79 3.584-5.454.862-.627 3.305-2.643 3.329-2.663l.278-.175a.5.5 0 0 1 .26-.381l2.869-1.565a.479.479 0 0 1 .182-.068l42.971-23.01a.5.5 0 0 1 .644.15l9.415 13.201a.502.502 0 0 1-.182.736l-17.45 8.841-33.159 10.446a4.853 4.853 0 0 0-.442 1.853l-.062 1.7.09 7.387a3.944 3.944 0 0 1-.983 2.674l-1.491 1.709.109 3.766c.034.97-.15 1.956-.534 2.848l-3.3 7.716a.961.961 0 0 1-.884.582zm-1.671-21.34c.398 0 .76.235.922.598l.704 1.597c.019.041.03.083.037.126l1.352 8.878a.484.484 0 0 1-.011.204l-1.987 7.434a1.318 1.318 0 0 0 .634 1.485l3.283-7.676a5.667 5.667 0 0 0 .453-2.422l-.115-3.964a.495.495 0 0 1 .123-.343l1.621-1.858a2.944 2.944 0 0 0 .736-2.001l-.09-7.413.062-1.724c.03-.847.245-1.672.639-2.453a.5.5 0 0 1 .296-.252l33.291-10.48 16.855-8.547-8.821-12.37-42.688 22.858a.53.53 0 0 1-.131.048l-.242.15-2.266 1.214a.496.496 0 0 1-.229.335l-.508.315c-.047.044-2.436 2.016-3.322 2.661-2.028 1.478-2.61 3.174-3.227 4.97l-1.342 3.861a6.767 6.767 0 0 0-.135 3.575c.199.827.278 1.679.235 2.53a390.603 390.603 0 0 0-.145 5.857c.027.358.322.692.718.769a.835.835 0 0 0 1.007-.673c.132-.71.985-5.082 1.287-6.475a1.024 1.024 0 0 1 1.004-.814z" fill="#1d2445"/><path d="m143.451 62.753 34.406 34.471c3.915 4.922 2.371 12.194-3.206 15.1l-3.183 1.659-43.608-42.487z" fill="#1d2445"/><path d="m171.378 114.594-.259-.253-44.087-42.953 16.505-9.256 34.674 34.74c1.997 2.505 2.746 5.684 2.092 8.763s-2.63 5.679-5.421 7.133zm-42.69-42.989 42.869 41.767 2.861-1.491a9.47 9.47 0 0 0 4.905-6.454 9.475 9.475 0 0 0-1.858-7.892l-34.101-34.161z" fill="#1d2445"/></svg></g></svg>